<?xml version="1.0" standalone="no"?>
<!DOCTYPE svg PUBLIC "-//W3C//DTD SVG 20010904//EN"
 "http://www.w3.org/TR/2001/REC-SVG-20010904/DTD/svg10.dtd">
<svg version="1.0" xmlns="http://www.w3.org/2000/svg"
 width="512.000000pt" height="512.000000pt" viewBox="0 0 512.000000 512.000000"
 preserveAspectRatio="xMidYMid meet">
<metadata>
Created by potrace 1.11, written by Peter Selinger 2001-2013
</metadata>
<g transform="translate(0.000000,512.000000) scale(0.100000,-0.100000)"
fill="#000000" stroke="none">
<path d="M2615 4931 c-3 -6 -14 -8 -25 -6 -12 2 -18 0 -14 -6 8 -13 -28 -7
-39 6 -5 6 -6 -3 -4 -20 2 -16 2 -24 0 -17 -6 16 -13 15 -30 -5 -11 -13 -10
-10 1 9 15 25 15 27 -1 21 -12 -5 -14 -3 -8 8 7 12 6 12 -7 1 -11 -9 -18 -9
-21 -2 -3 6 -4 5 -2 -2 1 -7 8 -12 14 -10 6 1 11 -2 11 -8 0 -13 -6 -13 -31 1
-15 8 -24 7 -36 -3 -14 -11 -15 -10 -9 12 5 18 5 21 -3 10 -5 -8 -13 -11 -17
-7 -4 4 -13 2 -21 -4 -10 -9 -19 -7 -36 7 -12 10 -19 15 -15 10 9 -10 -9 -36
-24 -36 -6 0 -5 7 2 15 7 9 10 18 6 22 -3 3 -6 1 -6 -6 0 -9 -8 -11 -21 -8
-16 4 -18 3 -9 -7 7 -10 6 -17 -7 -27 -17 -13 -17 -13 -4 4 14 17 13 18 -5 15
-10 -1 -25 -10 -32 -18 -11 -13 -11 -11 -2 8 6 12 15 20 19 18 4 -3 8 1 8 9 0
16 -13 20 -19 6 -1 -5 -19 -10 -38 -11 -56 -3 -72 -1 -65 10 3 6 1 10 -4 10
-6 0 -11 -7 -11 -15 0 -8 6 -15 14 -15 20 0 29 -17 15 -26 -8 -4 -9 -3 -5 4 5
8 0 12 -14 12 -11 0 -23 7 -26 15 -4 8 -10 15 -15 15 -6 0 -5 -8 1 -19 13 -25
13 -31 -1 -31 -5 0 -8 3 -5 8 2 4 -2 18 -10 32 l-15 25 4 -30 c2 -16 2 -24 0
-17 -6 16 -13 15 -30 -5 -11 -13 -10 -10 1 9 15 25 15 27 -1 21 -12 -5 -14 -3
-8 8 7 12 6 12 -7 1 -11 -9 -18 -9 -21 -2 -3 6 -4 5 -2 -2 1 -7 8 -12 14 -10
6 1 11 -2 11 -8 0 -13 -6 -13 -31 1 -15 8 -24 7 -36 -3 -14 -11 -15 -10 -10
12 4 14 4 19 1 13 -3 -7 -12 -13 -20 -13 -8 0 -14 6 -14 13 0 9 -2 9 -9 -1 -4
-8 -12 -14 -16 -14 -4 0 -12 6 -17 14 -7 9 -8 3 -4 -17 5 -22 4 -26 -3 -15 -9
13 -12 12 -27 -5 -14 -18 -14 -17 1 8 9 16 14 31 11 35 -3 3 -6 1 -6 -5 0 -5
-21 -11 -46 -11 -33 -2 -43 1 -38 10 4 6 -3 4 -17 -5 -27 -20 -40 -22 -36 -6
1 6 -5 14 -13 16 -12 4 -12 3 -2 -5 11 -7 10 -10 -3 -16 -23 -8 -27 -8 -21 3
4 5 -4 7 -16 3 l-22 -5 23 -9 c18 -6 21 -11 12 -22 -6 -7 -7 -17 -3 -21 4 -5
2 -5 -5 -1 -14 8 -27 -10 -13 -19 16 -10 2 -25 -18 -19 -14 5 -13 2 3 -11 20
-17 20 -17 -2 -12 -27 6 -29 1 -8 -20 9 -8 13 -18 10 -21 -3 -4 -10 0 -16 8
-7 11 -8 8 -5 -12 3 -18 -1 -31 -11 -37 -11 -6 -12 -10 -4 -15 6 -4 11 -2 11
4 0 6 5 8 11 4 8 -4 8 -9 0 -17 -14 -14 -14 -27 -1 -27 5 0 9 5 7 11 -1 6 4
14 11 16 14 6 16 -13 2 -22 -6 -4 -3 -13 7 -23 10 -9 14 -14 9 -9 -21 15 -26
6 -10 -19 20 -29 9 -46 -21 -33 -18 9 -18 9 3 5 26 -5 27 2 7 30 -8 12 -11 24
-8 28 3 3 1 6 -5 6 -6 0 -10 -9 -9 -19 0 -11 5 -17 9 -15 4 3 8 1 8 -4 0 -5
-10 -13 -22 -19 l-23 -10 23 -7 c12 -4 22 -12 22 -17 0 -6 6 -7 13 -3 8 5 8 2
-2 -9 -11 -14 -11 -17 0 -18 8 -1 18 -1 22 0 5 1 6 -3 2 -8 -3 -6 -13 -7 -23
-4 -14 5 -15 3 -5 -8 7 -7 13 -18 13 -23 0 -6 -5 -4 -11 4 -8 12 -9 11 -7 -5
3 -13 10 -19 23 -17 18 3 18 2 -3 -13 -12 -9 -20 -21 -16 -26 3 -6 12 -5 22 3
15 12 16 11 3 -4 -7 -10 -17 -15 -22 -12 -5 3 -9 -2 -9 -11 0 -9 -4 -14 -8
-11 -4 2 -14 1 -21 -3 -9 -6 -10 -11 -2 -15 6 -4 11 -2 11 5 0 8 5 7 17 -2 10
-8 14 -9 10 -2 -4 6 -3 14 2 17 11 7 9 -13 -2 -31 -8 -13 -2 -17 18 -13 5 1 1
-7 -8 -18 -11 -12 -14 -22 -8 -26 5 -4 14 2 20 11 9 16 10 16 8 -4 -1 -14 -7
-20 -19 -18 -12 3 -18 -2 -18 -16 0 -10 -5 -19 -11 -19 -5 0 -7 4 -4 10 3 6
-1 7 -10 3 -13 -5 -14 -7 -3 -14 7 -5 21 -9 30 -9 12 0 16 -8 16 -30 -1 -16
-5 -30 -9 -30 -4 0 -6 11 -3 25 3 18 0 25 -11 25 -18 0 -19 -11 -2 -29 10 -11
8 -12 -10 -6 -14 4 -23 2 -23 -4 0 -6 3 -10 8 -10 19 3 33 -2 27 -10 -3 -6 3
-15 12 -21 16 -10 16 -11 -4 -7 -27 6 -29 1 -8 -20 9 -8 13 -18 10 -21 -3 -4
-10 0 -16 8 -7 11 -8 8 -5 -12 3 -18 -1 -31 -11 -37 -11 -6 -12 -10 -4 -15 6
-4 11 -2 11 4 0 6 5 8 11 4 8 -4 8 -9 0 -17 -14 -14 -14 -27 -1 -27 5 0 9 5 7
11 -1 6 4 14 11 16 14 6 16 -13 2 -22 -6 -4 -3 -13 7 -23 10 -9 14 -14 9 -9
-21 15 -26 6 -10 -19 20 -29 9 -46 -21 -33 -18 9 -18 9 3 5 26 -5 27 2 7 30
-8 12 -11 24 -8 28 3 3 1 6 -5 6 -6 0 -10 -9 -9 -19 0 -11 5 -17 9 -15 4 3 8
1 8 -4 0 -5 -10 -13 -22 -19 l-23 -10 23 -7 c12 -4 22 -12 22 -17 0 -6 6 -7
13 -3 8 5 8 2 -2 -9 -11 -14 -11 -17 0 -18 8 -1 18 -1 22 0 5 1 6 -3 2 -8 -3
-6 -13 -7 -23 -4 -14 5 -15 3 -4 -8 6 -7 12 -18 12 -23 0 -6 -5 -4 -10 4 -8
13 -10 13 -10 -2 0 -9 5 -19 10 -21 6 -3 5 -4 -2 -3 -7 2 -13 12 -12 24 0 12
-3 19 -8 16 -4 -3 -8 -12 -8 -20 0 -8 -5 -14 -11 -14 -5 0 -7 -5 -3 -11 5 -8
9 -8 14 1 5 8 10 9 14 2 3 -6 2 -13 -3 -16 -4 -3 -8 -17 -8 -32 0 -18 3 -22
10 -15 14 14 27 14 27 0 0 -5 -3 -8 -7 -6 -5 3 -14 -1 -21 -9 -10 -11 -10 -14
0 -15 7 0 3 -5 -10 -11 l-22 -11 31 -19 c16 -10 36 -16 42 -12 7 3 5 0 -4 -8
-10 -8 -15 -26 -13 -45 2 -29 1 -31 -12 -18 -9 8 -18 15 -21 15 -4 0 -3 -3 0
-7 4 -3 0 -15 -10 -25 -9 -10 -13 -18 -8 -18 4 0 13 7 20 16 11 16 12 16 18 0
4 -9 3 -16 -2 -16 -5 0 -7 -13 -6 -29 2 -24 -1 -29 -16 -26 -10 2 -25 -3 -33
-10 -12 -13 -15 -12 -20 1 -3 8 -2 12 4 9 6 -3 10 -1 10 5 0 6 5 8 10 5 6 -3
10 -1 10 5 0 7 -7 9 -16 6 -9 -4 -24 -1 -33 6 -14 12 -15 11 -1 -6 14 -17 13
-18 -7 -12 -12 4 -24 2 -28 -3 -3 -6 0 -8 8 -5 8 3 19 -1 25 -9 9 -11 8 -14
-3 -14 -8 0 -11 5 -8 10 3 5 0 7 -8 5 -8 -3 -12 -12 -11 -19 2 -8 0 -10 -5 -6
-4 5 -9 13 -9 18 -1 5 -2 12 -3 17 0 4 -10 13 -21 20 -21 12 -21 12 -4 -13 9
-14 14 -28 10 -32 -3 -3 -6 -1 -6 7 0 10 -4 10 -17 -1 -14 -12 -16 -12 -9 0 6
9 5 12 -5 9 -8 -3 -12 -12 -11 -19 2 -8 0 -10 -5 -6 -4 5 -9 13 -9 18 -1 5 -2
12 -3 17 0 4 -10 13 -21 20 -21 12 -21 12 -4 -13 9 -14 14 -28 10 -32 -3 -3
-6 -2 -6 4 0 5 -7 10 -15 10 -10 0 -14 -6 -10 -16 3 -10 -1 -9 -10 4 -12 16
-18 17 -24 7 -7 -11 -9 -10 -14 3 -4 9 -3 13 3 10 6 -3 10 -2 10 2 0 5 -10 14
-22 22 -22 13 -22 13 -8 -4 14 -16 13 -17 -7 -11 -12 4 -24 2 -28 -3 -3 -6 0
-8 8 -5 8 3 19 -1 25 -9 9 -11 8 -14 -3 -14 -8 0 -11 5 -8 10 3 5 0 7 -8 5 -8
-3 -12 -12 -11 -19 2 -8 0 -10 -5 -6 -4 5 -9 13 -9 18 -1 5 -2 12 -3 17 0 4
-10 13 -21 20 -21 12 -21 12 -4 -13 9 -14 14 -28 10 -32 -3 -3 -6 -2 -6 4 0 5
-7 10 -15 10 -10 0 -14 -6 -10 -16 3 -10 -1 -9 -10 4 -12 16 -18 17 -24 7 -7
-11 -9 -10 -14 3 -4 9 -3 13 3 10 6 -3 10 -2 10 2 0 5 -10 14 -23 22 -21 13
-21 13 -7 -4 14 -16 13 -17 -7 -11 -12 4 -24 2 -28 -3 -3 -6 0 -8 8 -5 8 3 19
-1 25 -9 9 -11 8 -14 -3 -14 -8 0 -11 5 -8 10 3 5 0 7 -8 5 -8 -3 -13 -12 -11
-19 2 -8 0 -10 -5 -6 -4 5 -9 13 -9 18 -1 5 -2 12 -3 17 0 4 -10 13 -21 20
-21 12 -21 12 -4 -13 9 -14 14 -28 10 -32 -3 -3 -6 -2 -6 4 0 5 -7 10 -15 10
-10 0 -14 -6 -10 -16 3 -10 -1 -9 -10 4 -12 16 -18 17 -24 7 -7 -11 -9 -10
-14 3 -4 9 -3 13 3 10 6 -3 10 -2 10 3 0 6 -7 13 -16 16 -8 3 -13 2 -10 -3 7
-11 -24 -24 -33 -15 -3 4 0 9 7 11 6 3 12 10 12 16 -1 7 -10 1 -21 -12 -11
-13 -22 -21 -26 -18 -3 4 0 13 7 22 11 13 10 14 -4 9 -11 -4 -16 -14 -13 -25
3 -11 0 -22 -5 -26 -6 -3 -8 -1 -4 5 3 6 2 13 -3 17 -6 3 -8 13 -5 23 5 14 4
14 -4 3 -6 -8 -8 -21 -4 -29 3 -10 1 -13 -7 -8 -6 4 -19 2 -28 -6 -10 -7 -14
-8 -10 -1 4 6 4 13 0 16 -5 2 -2 2 5 0 7 -1 10 2 7 7 -3 5 -19 8 -36 6 -19 -2
-33 2 -39 13 -8 13 -10 14 -11 1 -1 -8 -1 -21 0 -29 2 -7 -3 -10 -9 -6 -6 4
-18 1 -27 -7 -10 -7 -14 -8 -10 -1 4 6 4 13 0 16 -5 2 -2 2 5 0 7 -1 10 2 7 7
-3 5 -19 8 -36 6 -19 -2 -33 2 -39 13 -8 13 -10 14 -11 1 -1 -8 -1 -21 0 -29
2 -7 -3 -10 -9 -6 -6 4 -18 1 -27 -7 -10 -7 -14 -8 -10 -1 4 6 4 13 0 16 -5 2
-2 2 5 0 7 -1 10 2 7 7 -3 5 -19 8 -36 6 -19 -2 -33 2 -39 13 -8 13 -10 14
-11 1 -1 -8 -1 -21 0 -29 2 -7 -3 -10 -9 -6 -6 4 -18 1 -27 -7 -10 -7 -14 -8
-10 -1 4 6 4 13 0 16 -5 2 -2 2 5 0 7 -1 10 2 7 7 -3 5 -20 8 -36 6 -20 -2
-32 1 -36 11 -5 12 -7 12 -14 1 -5 -7 -9 -17 -9 -23 0 -5 4 -4 9 4 6 9 11 10
15 3 4 -6 14 -8 24 -5 18 7 17 5 -12 -17 -11 -8 -17 -10 -13 -3 9 15 -32 14
-52 -1 -11 -8 -13 -8 -8 1 4 6 4 13 0 16 -5 2 -2 2 5 0 7 -1 10 2 7 7 -3 6
-19 8 -35 5 -25 -4 -29 -2 -24 12 5 14 4 15 -4 4 -5 -7 -16 -10 -23 -6 -8 4
-3 -2 11 -13 14 -12 21 -24 17 -28 -4 -4 -7 -2 -7 4 0 7 -15 12 -37 11 -21 -1
-30 -3 -20 -6 9 -2 17 -9 17 -14 0 -6 -9 -8 -19 -4 -11 3 -23 0 -27 -6 -4 -7
-3 -9 4 -5 6 3 16 -3 22 -15 7 -12 8 -19 2 -15 -6 3 -12 3 -15 -1 -2 -5 -3 -3
-1 3 1 6 -4 11 -11 11 -11 0 -11 -5 -4 -19 6 -11 16 -17 23 -15 9 4 11 -2 8
-19 -2 -13 -8 -24 -13 -24 -5 0 -6 7 -3 15 4 10 0 15 -12 15 -16 0 -17 -2 -4
-10 13 -9 13 -10 0 -10 -12 -1 -11 -3 3 -11 9 -6 15 -15 11 -21 -4 -7 -10 -5
-16 3 -8 11 -9 11 -5 -1 2 -8 12 -13 22 -12 16 3 17 1 6 -12 -7 -9 -18 -13
-24 -9 -6 3 -7 1 -3 -6 4 -6 11 -9 16 -6 4 3 11 -2 14 -11 3 -8 11 -12 17 -8
8 4 9 3 5 -5 -6 -9 -11 -9 -22 0 -11 9 -14 8 -14 -5 0 -9 5 -16 12 -16 6 0 8
-3 5 -7 -4 -3 0 -14 9 -24 14 -16 14 -17 -3 -15 -10 2 -18 9 -18 16 0 7 -6 14
-13 16 -7 1 -8 0 -2 -3 7 -3 7 -10 -2 -21 -10 -12 -10 -14 0 -8 13 8 17 -6 5
-18 -11 -10 -12 -37 -2 -30 5 3 9 -2 9 -11 0 -9 -4 -14 -8 -11 -5 3 -9 -2 -9
-10 0 -10 4 -11 11 -4 15 15 30 12 17 -3 -6 -8 -8 -17 -4 -20 3 -4 11 0 17 9
10 13 12 13 12 -4 0 -14 -7 -19 -25 -18 -20 1 -25 -4 -26 -26 -1 -15 2 -25 7
-22 10 6 11 -10 1 -20 -12 -12 -11 -56 3 -67 14 -11 14 6 1 29 -5 7 -3 12 5
12 11 0 11 2 0 9 -10 6 -10 10 3 21 8 7 18 10 22 6 3 -3 2 -6 -3 -6 -5 0 -10
-11 -10 -25 -1 -16 2 -23 10 -18 7 3 6 1 -1 -7 -10 -11 -10 -17 2 -30 14 -16
13 -17 -12 -16 -22 1 -27 -3 -28 -26 -1 -15 2 -25 7 -22 4 3 8 -2 8 -11 0 -10
-5 -13 -12 -9 -7 4 -8 3 -4 -4 4 -6 14 -8 24 -5 15 6 15 5 3 -10 -7 -9 -18
-14 -24 -10 -6 3 -7 1 -3 -6 4 -6 11 -9 16 -6 4 3 11 -2 14 -11 3 -8 11 -12
17 -8 8 4 9 3 5 -5 -6 -9 -11 -9 -22 0 -11 9 -14 8 -14 -5 0 -9 5 -16 12 -16
6 0 8 -3 5 -7 -4 -3 0 -14 9 -24 14 -16 14 -17 -3 -15 -10 2 -18 9 -18 16 0 7
-6 14 -13 16 -7 1 -8 0 -2 -3 7 -3 7 -10 -2 -21 -11 -13 -11 -14 1 -7 11 6 13
4 7 -11 -13 -32 -15 -55 -5 -49 5 4 9 2 9 -4 0 -5 -6 -12 -12 -14 -10 -4 -9
-6 1 -6 11 -1 11 -4 0 -18 -10 -11 -10 -14 -1 -9 9 5 12 -2 12 -28 0 -19 -5
-36 -12 -38 -8 -3 -6 -7 5 -11 10 -4 16 -2 14 5 -1 7 6 13 16 14 13 1 14 1 1
-3 -14 -4 -14 -7 3 -26 12 -13 13 -17 3 -12 -8 5 -24 11 -35 12 -20 3 -20 3 0
-10 21 -13 32 -77 14 -77 -6 0 -8 4 -5 8 3 5 -1 9 -8 9 -7 0 -13 -6 -13 -13 0
-7 5 -12 10 -11 5 1 12 -4 14 -11 3 -8 -2 -10 -14 -6 -10 3 -14 2 -8 -3 15
-12 19 -47 4 -37 -8 4 -10 3 -5 -4 4 -6 14 -8 24 -5 15 6 15 5 3 -10 -7 -9
-18 -14 -24 -10 -6 3 -7 1 -3 -6 4 -6 11 -9 16 -6 4 3 11 -2 14 -11 3 -8 11
-12 17 -8 8 4 9 3 5 -5 -6 -9 -11 -9 -22 0 -11 9 -14 8 -14 -5 0 -9 5 -16 12
-16 6 0 8 -3 5 -7 -4 -3 0 -14 9 -24 14 -16 14 -17 -3 -15 -10 2 -18 9 -18 16
0 7 -6 14 -13 16 -7 1 -8 0 -2 -3 7 -3 7 -10 -2 -21 -10 -12 -10 -14 -1 -8 14
8 18 -6 6 -18 -11 -10 -12 -37 -2 -30 5 3 9 -2 9 -11 0 -9 -4 -14 -8 -11 -5 3
-9 -2 -9 -10 0 -10 4 -11 11 -4 15 15 30 12 17 -3 -6 -8 -8 -17 -4 -20 3 -4
11 0 17 9 10 13 12 13 12 -4 0 -14 -7 -19 -25 -18 -20 1 -25 -4 -26 -26 -1
-15 2 -25 7 -22 10 6 11 -10 1 -20 -12 -12 -11 -56 3 -67 14 -11 14 6 1 29 -5
7 -3 12 5 12 11 0 11 2 0 9 -10 6 -10 10 3 21 8 7 18 10 22 6 3 -3 2 -6 -3 -6
-5 0 -10 -11 -10 -25 -1 -16 2 -23 10 -18 7 3 6 1 -1 -7 -10 -11 -10 -17 2
-30 14 -16 13 -17 -12 -16 -22 1 -27 -3 -28 -26 -1 -15 2 -25 7 -22 4 3 8 -2
8 -11 0 -10 -5 -13 -12 -9 -7 4 -8 3 -4 -4 4 -6 14 -8 24 -5 15 6 15 5 3 -10
-7 -9 -18 -14 -24 -10 -6 3 -7 1 -3 -6 4 -6 11 -9 16 -6 4 3 11 -2 14 -11 3
-8 11 -12 17 -8 8 4 9 3 5 -5 -6 -9 -11 -9 -22 0 -11 9 -14 8 -14 -5 0 -9 5
-16 12 -16 6 0 8 -3 5 -7 -4 -3 0 -14 9 -24 14 -16 14 -17 -3 -15 -10 2 -18 9
-18 16 0 7 -6 14 -13 16 -7 1 -8 0 -2 -3 7 -3 7 -10 -2 -21 -11 -13 -11 -14 1
-7 11 6 13 4 7 -11 -13 -32 -15 -55 -5 -49 5 4 9 2 9 -4 0 -5 -6 -12 -12 -14
-10 -4 -9 -6 1 -6 11 -1 11 -4 0 -18 -10 -11 -10 -14 -1 -9 6 4 12 2 12 -3 0
-6 -5 -11 -12 -11 -6 0 -8 -3 -5 -6 4 -4 13 -2 20 5 11 9 14 5 15 -19 0 -17
-4 -30 -11 -30 -6 0 -2 -6 8 -14 11 -8 23 -12 27 -10 4 2 9 0 13 -6 3 -5 1
-10 -4 -10 -6 0 -11 -5 -11 -11 0 -8 5 -7 16 2 9 7 18 9 22 3 12 -16 50 -13
47 5 -2 9 -4 18 -4 21 -1 2 -6 -1 -13 -8 -15 -15 -29 -16 -25 -1 1 6 -5 14
-13 16 -13 4 -13 3 0 -7 10 -8 11 -10 2 -8 -21 5 -15 23 8 24 11 1 17 -2 15
-7 -3 -4 3 -7 12 -7 10 0 27 -3 37 -7 15 -6 17 -5 11 5 -6 9 -4 11 5 5 7 -4
16 -2 20 5 5 9 9 9 14 1 4 -6 2 -11 -4 -11 -6 0 -9 -4 -5 -10 3 -5 12 -7 20
-4 11 5 12 11 4 27 -9 20 -9 20 4 5 20 -25 30 -22 17 5 -11 21 -11 21 5 2 14
-18 13 -21 -12 -40 -19 -16 -22 -22 -10 -22 9 0 14 4 11 9 -3 4 8 8 25 8 16 0
31 -3 34 -7 2 -5 2 -2 0 6 -2 9 2 11 14 6 10 -4 26 -8 36 -10 9 -2 21 -6 27
-10 5 -3 7 4 5 15 -3 17 0 20 17 14 14 -4 18 -2 14 5 -5 7 -1 9 8 5 10 -4 16
-1 16 7 0 21 11 3 16 -27 3 -16 8 -31 11 -34 3 -3 3 5 0 18 -3 12 -1 22 4 22
6 0 5 9 -1 23 -10 20 -10 20 3 5 20 -25 30 -22 17 4 -10 22 -10 22 4 4 8 -10
20 -15 27 -10 8 4 10 3 5 -4 -4 -7 -2 -12 3 -12 6 0 11 4 11 10 0 5 9 2 20 -7
11 -9 17 -19 15 -21 -3 -3 -11 1 -20 8 -12 10 -15 10 -15 0 0 -10 -3 -10 -14
0 -11 8 -20 9 -33 1 -17 -10 -17 -10 0 -11 10 0 15 -4 12 -10 -3 -5 -1 -10 4
-10 6 0 11 4 11 9 0 4 10 7 22 6 32 -3 32 -3 18 -20 -11 -13 -10 -14 4 -9 9 3
16 13 16 21 0 10 6 13 16 9 8 -3 12 -2 9 4 -3 6 -1 10 6 10 8 0 7 5 -2 17 -13
16 -13 16 11 0 29 -20 44 -22 34 -4 -4 6 -4 9 1 5 4 -4 14 -3 22 4 10 8 12 8
8 -3 -4 -10 2 -15 16 -16 18 -2 19 0 7 15 -12 16 -11 16 6 2 15 -11 20 -12 23
-2 5 14 23 17 23 4 0 -5 -10 -14 -22 -20 -19 -9 -20 -11 -5 -11 10 -1 15 -5
12 -11 -3 -5 -1 -10 5 -10 7 0 9 7 6 16 -4 10 -2 13 6 8 6 -4 8 -3 5 2 -3 6
-1 16 5 24 8 12 9 12 4 -3 -3 -11 0 -20 9 -23 8 -4 13 -9 10 -13 -2 -4 2 -8
10 -8 13 0 13 3 0 17 -15 17 -11 30 9 30 7 0 6 -4 -2 -8 -8 -6 -1 -13 22 -25
29 -13 34 -14 29 -2 -3 8 -9 13 -13 10 -16 -10 -19 12 -5 31 11 13 13 14 10 3
-5 -12 1 -16 25 -17 36 -1 38 5 8 18 -17 6 -18 9 -6 9 9 1 20 -4 23 -9 4 -6
11 -8 16 -4 5 3 15 1 22 -4 14 -12 69 -13 62 -1 -3 4 -1 10 4 14 6 3 8 -4 6
-15 -2 -12 2 -23 10 -27 8 -3 13 -8 10 -12 -2 -4 2 -8 10 -8 13 0 12 3 -1 18
-16 17 -15 19 1 26 18 6 18 7 -1 14 -16 6 -16 8 -2 8 23 1 32 -16 13 -27 -13
-7 -11 -10 11 -21 23 -10 25 -10 16 1 -6 8 -7 19 -3 27 7 11 13 11 32 -3 26
-18 43 -21 34 -6 -4 6 1 7 11 3 11 -4 15 -3 10 5 -3 6 -2 14 4 17 6 4 9 1 8
-7 -2 -7 3 -12 10 -10 8 1 11 -2 7 -8 -4 -6 -9 -9 -12 -6 -3 3 -15 -1 -27 -9
-24 -17 -40 -20 -31 -5 4 6 -1 7 -11 3 -15 -6 -15 -7 0 -15 12 -7 24 -5 40 5
16 11 27 12 40 5 15 -8 17 -8 11 2 -6 10 -4 12 9 7 10 -4 20 -7 22 -7 3 0 3
-4 0 -8 -2 -4 4 -8 14 -8 10 0 16 6 13 13 -3 7 -9 10 -14 7 -5 -3 -9 -3 -9 0
0 3 9 10 20 16 17 9 19 8 13 -7 -5 -13 3 -11 33 11 23 18 32 21 22 10 -20 -22
-24 -39 -8 -29 17 10 11 -7 -7 -22 -16 -13 -16 -13 5 -3 12 6 21 18 20 27 -2
10 5 17 19 18 12 1 20 -2 18 -6 -3 -4 3 -13 12 -20 15 -12 16 -12 11 3 -7 17
14 20 29 3 5 -4 2 -5 -6 0 -11 6 -13 4 -8 -9 4 -10 3 -15 -3 -11 -6 3 -10 -1
-10 -10 0 -9 5 -13 10 -10 5 3 10 2 10 -4 0 -5 -10 -13 -21 -16 -17 -6 -19 -9
-8 -16 12 -7 11 -9 -1 -9 -13 0 -13 -1 0 -10 8 -5 20 -10 25 -10 6 0 3 5 -5
10 -13 8 -13 10 2 10 9 0 20 -4 23 -10 3 -5 1 -10 -4 -10 -13 0 -10 -22 4 -33
6 -4 1 -7 -10 -6 -35 3 -46 -1 -39 -12 5 -8 9 -8 14 1 6 9 11 6 20 -10 11 -20
10 -22 -4 -17 -9 4 -16 2 -16 -2 0 -5 7 -12 16 -15 8 -3 13 -10 10 -15 -4 -5
-1 -11 6 -13 8 -3 6 -7 -4 -11 -13 -4 -16 -1 -13 14 2 10 0 19 -4 19 -5 0 -8
-11 -8 -25 0 -20 3 -24 18 -20 21 7 26 -9 7 -21 -7 -5 -8 -3 -3 6 6 9 4 11 -5
5 -10 -6 -9 -11 5 -22 11 -7 13 -13 6 -13 -7 0 -10 -4 -6 -10 3 -5 13 -7 23
-3 11 3 9 -1 -6 -11 -12 -10 -20 -22 -16 -27 3 -6 12 -5 22 3 15 12 16 11 3
-4 -7 -10 -17 -15 -22 -12 -5 3 -9 -2 -9 -11 0 -9 -4 -14 -8 -11 -4 2 -14 1
-21 -3 -9 -6 -10 -11 -2 -15 6 -4 11 -2 11 5 0 8 5 7 17 -2 10 -8 14 -9 10 -2
-4 6 -3 14 2 17 11 7 9 -13 -2 -32 -8 -12 -2 -16 18 -12 5 1 1 -7 -8 -18 -11
-12 -14 -22 -8 -26 5 -4 14 2 20 11 9 16 10 16 8 -4 -1 -14 -7 -20 -19 -18
-12 3 -18 -2 -18 -16 0 -10 -5 -19 -11 -19 -5 0 -7 4 -4 10 3 6 -1 7 -10 3
-13 -5 -14 -7 -3 -14 7 -5 21 -9 30 -9 12 0 16 -8 16 -30 -1 -16 -5 -30 -9
-30 -4 0 -6 11 -3 25 3 18 0 25 -11 25 -18 0 -19 -11 -3 -29 11 -11 9 -12 -9
-6 -14 4 -23 2 -23 -4 0 -6 3 -10 8 -10 19 3 33 -2 27 -10 -3 -6 3 -15 12 -21
16 -10 16 -11 -4 -7 -27 6 -29 1 -8 -20 9 -8 13 -18 10 -21 -3 -4 -10 0 -16 8
-7 11 -8 8 -5 -12 3 -18 -1 -31 -11 -37 -11 -6 -12 -10 -4 -15 6 -4 11 -2 11
4 0 6 5 8 11 4 8 -4 8 -9 0 -17 -14 -14 -14 -27 -1 -27 5 0 9 5 7 11 -1 6 4
14 11 16 14 6 16 -13 2 -22 -6 -4 -3 -13 7 -23 10 -9 14 -14 9 -9 -21 15 -26
6 -10 -19 20 -29 9 -46 -21 -33 -18 9 -18 9 3 5 26 -5 27 2 7 30 -8 12 -11 24
-8 28 3 3 1 6 -5 6 -6 0 -10 -9 -9 -19 0 -11 5 -17 9 -15 4 3 8 1 8 -4 0 -5
-10 -13 -22 -19 l-23 -10 23 -7 c12 -4 22 -12 22 -17 0 -6 6 -7 13 -3 8 5 8 2
-2 -9 -11 -14 -11 -17 0 -18 8 -1 18 -1 22 0 5 1 6 -3 2 -8 -3 -6 -13 -7 -23
-4 -14 5 -15 3 -4 -8 6 -7 12 -18 12 -24 0 -5 -5 -3 -11 5 -8 12 -9 11 -7 -5
3 -13 10 -19 23 -17 18 3 18 2 -3 -13 -12 -9 -20 -21 -16 -26 3 -6 12 -5 22 3
15 12 16 11 3 -4 -7 -10 -17 -15 -22 -12 -5 3 -9 -2 -9 -11 0 -9 -4 -14 -8
-11 -4 2 -14 1 -21 -3 -9 -6 -10 -11 -2 -15 6 -4 11 -2 11 5 0 8 5 7 17 -2 10
-8 14 -9 10 -2 -4 6 -3 14 2 17 11 7 9 -13 -2 -32 -8 -12 -2 -16 18 -12 5 1 1
-7 -8 -18 -11 -12 -14 -22 -8 -26 5 -4 14 2 20 11 9 16 10 16 8 -4 -1 -14 -7
-20 -19 -18 -12 3 -18 -2 -18 -16 0 -10 -5 -19 -11 -19 -5 0 -7 4 -4 10 3 6
-1 7 -10 3 -13 -5 -14 -7 -3 -14 7 -5 21 -9 30 -9 12 0 16 -8 16 -30 -1 -16
-5 -30 -9 -30 -4 0 -6 11 -3 25 3 18 0 25 -11 25 -18 0 -19 -11 -2 -29 10 -11
8 -12 -10 -6 -14 4 -23 2 -23 -4 0 -6 3 -10 8 -10 20 3 32 -2 26 -13 -4 -6 -3
-8 2 -5 5 3 10 -3 10 -14 0 -21 -12 -25 -20 -6 -3 6 -4 3 -3 -8 1 -12 -3 -19
-11 -17 -8 1 -11 -2 -7 -8 3 -6 10 -8 14 -6 4 3 17 -3 28 -14 12 -10 25 -16
29 -12 5 4 2 -1 -5 -11 -8 -9 -10 -21 -6 -25 4 -4 10 -1 12 6 3 6 9 12 15 12
7 0 7 -5 -1 -13 -6 -8 -9 -16 -6 -19 3 -2 -2 -5 -10 -5 -8 0 -16 6 -19 14 -3
7 -11 13 -18 13 -9 0 -8 -3 2 -10 8 -5 11 -10 7 -10 -11 0 48 -50 59 -50 4 0
-1 7 -12 16 -18 14 -18 15 6 9 19 -5 22 -4 10 4 -9 6 -10 11 -3 11 6 0 14 8
17 18 2 9 3 0 0 -20 -4 -39 3 -47 24 -26 9 9 12 9 12 0 0 -6 -8 -15 -17 -21
-16 -9 -16 -10 4 -8 12 0 20 4 17 8 -5 8 14 22 33 25 6 1 9 -4 7 -11 -3 -7 -1
-16 4 -19 6 -3 9 10 9 29 -1 20 -6 34 -12 31 -5 -2 -9 -8 -8 -13 1 -5 -11 -9
-28 -9 -16 0 -29 4 -29 9 0 5 8 6 18 3 14 -5 14 -4 -2 9 -11 8 -15 15 -10 15
6 0 15 -5 21 -11 7 -7 17 -8 25 -3 18 12 58 12 51 1 -3 -5 0 -7 8 -5 8 3 13
14 13 26 -1 12 2 19 6 17 5 -3 7 -13 5 -23 -1 -9 3 -24 11 -32 12 -15 14 -20
14 -39 0 -6 9 -9 20 -8 15 1 18 6 14 20 -4 14 -3 17 6 12 8 -5 11 -4 7 1 -3 6
-2 16 4 24 6 11 9 12 9 2 0 -7 5 -10 12 -6 7 4 8 3 4 -5 -4 -6 -12 -8 -18 -5
-6 4 -6 -1 1 -14 12 -23 52 -27 43 -4 -4 11 3 9 24 -4 15 -11 25 -14 21 -7 -4
6 -3 14 3 18 5 3 10 0 10 -7 0 -10 2 -10 8 0 8 12 62 13 62 0 0 -12 -18 -19
-25 -8 -3 5 -11 10 -18 10 -6 0 -2 -6 8 -14 11 -8 25 -12 32 -9 14 5 14 38 0
60 -6 10 -2 11 32 4 2 -1 -2 -8 -9 -16 -9 -11 -10 -15 -1 -15 8 0 10 -8 6 -22
-5 -20 -4 -21 5 -5 6 9 9 21 6 26 -3 5 1 14 9 21 8 7 12 17 8 24 -3 6 0 5 8
-3 11 -10 11 -15 2 -18 -7 -3 -13 -12 -13 -21 0 -13 2 -14 9 -3 5 8 11 9 15 3
4 -6 -1 -15 -10 -20 -14 -8 -14 -10 -1 -15 8 -3 23 3 32 13 10 11 22 17 27 14
5 -3 0 -13 -11 -21 -12 -8 -21 -18 -21 -24 0 -5 10 1 22 13 13 13 22 26 21 30
-2 5 2 8 7 8 6 0 10 -6 10 -14 0 -8 5 -18 11 -22 8 -4 9 1 4 17 l-8 24 22 -20
c14 -12 21 -14 19 -6 -2 7 3 16 10 18 7 3 10 -1 6 -10 -3 -8 2 -17 12 -21 14
-5 15 -4 5 8 -8 9 -8 16 -2 20 5 4 12 -2 16 -13 3 -12 14 -19 25 -18 22 1 24
6 10 27 -8 12 -10 12 -10 -5 -1 -20 -1 -20 -15 -1 -10 13 -11 23 -5 31 5 7 6
16 2 20 -4 5 -1 5 6 1 11 -6 11 -11 0 -24 -11 -13 -11 -15 3 -10 9 4 22 1 28
-5 10 -9 12 -9 9 3 -2 8 -7 18 -13 22 -6 4 -2 8 8 8 9 0 17 -5 17 -11 0 -5 5
-7 12 -3 7 4 8 3 4 -5 -4 -6 -12 -8 -18 -5 -6 4 -6 -1 1 -14 12 -23 52 -27 43
-4 -4 11 3 9 24 -4 15 -11 25 -14 21 -7 -4 6 -3 14 3 18 5 3 10 0 10 -7 0 -9
3 -9 8 -2 10 15 51 24 58 12 3 -5 2 -14 -4 -20 -6 -6 -12 -6 -16 1 -4 6 -12
11 -19 11 -6 0 -2 -6 8 -14 27 -20 46 -9 43 25 -3 33 -2 33 -31 18 -12 -7 -19
-8 -15 -4 4 5 3 14 -3 21 -7 8 -7 14 1 19 6 4 9 1 8 -7 -2 -9 8 -13 34 -12 20
0 34 -4 31 -9 -3 -5 5 -7 18 -3 13 3 18 3 11 0 -6 -3 -10 -9 -8 -13 3 -4 -1
-8 -9 -8 -8 0 -15 4 -15 9 0 4 -5 8 -11 8 -8 0 -7 -5 1 -15 11 -13 9 -21 -10
-48 -22 -30 -22 -31 -2 -13 12 10 24 27 27 37 4 11 11 17 16 13 6 -4 6 -10 0
-18 -8 -10 -5 -12 12 -11 12 1 27 12 33 24 8 15 14 19 19 11 4 -6 0 -19 -9
-29 -22 -24 -20 -35 2 -13 20 20 37 57 23 48 -5 -3 -12 1 -15 10 -8 21 -8 24
5 24 5 0 7 -4 4 -10 -7 -12 8 -14 19 -2 11 10 56 10 49 -1 -3 -5 0 -7 8 -5 8
3 13 14 13 26 -1 12 2 19 6 17 5 -3 7 -13 5 -23 -1 -9 3 -24 11 -32 12 -15 14
-20 14 -39 0 -6 9 -9 20 -8 15 1 18 6 14 20 -4 14 -3 17 6 12 8 -5 11 -4 7 1
-3 6 -2 16 4 24 6 11 9 12 9 2 0 -7 5 -10 12 -6 7 4 8 3 4 -5 -4 -6 -12 -8
-18 -5 -6 4 -6 -1 1 -14 12 -23 52 -27 43 -4 -4 11 3 9 24 -4 15 -11 25 -14
21 -7 -4 6 -3 14 3 18 5 3 10 0 10 -7 0 -10 2 -10 8 0 8 12 62 13 62 0 0 -12
-18 -19 -25 -8 -3 5 -11 10 -18 10 -6 0 -2 -6 8 -14 11 -8 25 -12 32 -9 14 5
14 38 0 60 -6 10 -2 11 32 4 2 -1 -2 -8 -9 -16 -9 -11 -10 -15 -1 -15 8 0 10
-8 6 -22 -5 -20 -4 -21 5 -5 6 9 9 21 6 26 -3 5 1 14 9 21 8 7 12 17 8 24 -3
6 0 5 8 -3 11 -10 11 -15 2 -18 -7 -3 -13 -12 -13 -21 0 -13 2 -14 9 -3 5 8
11 9 15 3 4 -6 -1 -15 -10 -20 -14 -8 -14 -10 -1 -15 8 -3 23 3 32 13 10 11
22 17 27 14 5 -3 0 -13 -11 -21 -12 -8 -21 -18 -21 -24 0 -5 10 1 22 13 13 13
22 26 21 30 -2 5 2 8 7 8 6 0 10 -6 10 -14 0 -8 5 -18 11 -22 8 -4 9 1 4 17
l-8 24 22 -20 c14 -12 21 -14 19 -6 -2 7 3 16 10 18 7 3 10 -1 6 -10 -3 -8 2
-17 12 -21 14 -5 15 -4 5 8 -8 9 -8 16 -2 20 5 4 12 -2 16 -13 3 -12 14 -19
25 -18 22 1 24 6 10 27 -8 12 -10 12 -10 -5 -1 -20 -1 -20 -15 -1 -10 13 -11
23 -5 31 5 7 6 16 2 20 -4 5 -1 5 6 1 11 -6 11 -11 0 -24 -11 -13 -11 -15 3
-10 9 4 22 1 28 -5 10 -9 12 -9 9 3 -2 8 -7 18 -13 22 -6 4 -2 8 8 8 9 0 17
-5 17 -11 0 -5 5 -7 12 -3 7 4 8 3 4 -5 -4 -6 -12 -9 -17 -6 -5 4 -4 -5 2 -18
8 -19 16 -23 33 -18 21 6 21 6 -1 9 -13 2 -23 8 -23 13 0 11 28 7 58 -9 18
-10 22 -10 20 -1 -2 7 5 15 15 17 9 2 17 -2 17 -8 0 -6 -4 -9 -9 -6 -13 8 -7
-22 6 -35 8 -8 13 -8 18 0 3 6 3 11 -2 10 -20 -3 -25 2 -13 15 6 8 19 12 28 9
9 -3 4 4 -13 15 -23 15 -33 17 -44 8 -12 -9 -13 -8 -6 3 5 10 4 12 -3 7 -17
-10 -52 -16 -51 -8 1 4 0 9 -1 12 -7 19 -7 39 1 34 5 -3 7 -9 4 -14 -3 -4 3
-14 12 -21 15 -12 16 -12 10 5 -7 17 -6 17 9 5 20 -16 25 -15 42 14 11 20 12
20 8 2 -4 -15 1 -23 20 -32 21 -10 23 -9 15 1 -6 7 -7 17 -3 21 4 5 2 5 -5 2
-7 -5 -10 -1 -9 10 2 9 9 19 17 21 11 3 11 2 1 -6 -9 -6 -3 -9 18 -9 20 0 26
3 18 9 -12 7 -4 12 14 9 4 0 5 6 1 15 -6 17 -29 13 -25 -5 1 -7 -2 -9 -8 -6
-6 4 -9 13 -6 20 7 20 -5 26 -23 12 -14 -11 -14 -10 -2 5 10 14 17 15 33 7 15
-8 19 -8 14 0 -4 6 0 11 11 12 14 0 15 2 3 7 -17 8 -25 32 -10 32 6 0 10 8 10
17 0 15 -2 14 -14 -2 -8 -11 -12 -28 -10 -38 3 -15 1 -17 -11 -7 -8 7 -12 17
-9 22 4 6 0 15 -7 20 -10 7 -7 7 9 3 19 -6 22 -3 22 25 l0 32 18 -23 c13 -15
21 -19 26 -10 4 6 4 11 -1 10 -20 -3 -25 2 -13 16 11 13 10 14 -1 10 -10 -4
-15 2 -16 15 -1 11 2 18 7 15 5 -3 12 0 16 6 4 8 3 9 -4 5 -7 -4 -12 -2 -12 4
0 7 -6 10 -12 7 -7 -2 -12 -16 -12 -30 1 -31 -3 -32 -30 -12 -12 9 -15 15 -7
15 11 0 11 3 0 17 -11 15 -11 16 0 6 19 -16 41 7 41 44 l0 28 20 -25 21 -25
-13 28 c-7 17 -17 26 -26 22 -7 -3 -23 2 -35 11 l-22 16 22 -6 c25 -8 26 10 3
40 -12 16 -12 17 0 7 22 -20 35 -15 16 6 -15 17 -15 19 1 32 9 8 14 9 10 2
-12 -19 6 -23 28 -6 16 12 16 14 3 10 -10 -3 -20 -2 -23 3 -3 5 3 10 12 12 15
3 14 5 -5 10 -12 3 -20 3 -17 -2 3 -4 -1 -10 -8 -13 -7 -3 -13 3 -13 12 0 9 7
18 16 19 64 7 83 24 55 50 -12 11 -15 11 -8 2 15 -20 4 -34 -29 -38 -23 -3
-28 1 -28 18 0 12 -4 19 -8 16 -5 -3 -9 1 -9 9 0 11 4 12 14 4 7 -6 13 -18 13
-26 0 -18 22 -12 28 8 3 11 2 11 -7 -1 -6 -9 -11 -10 -11 -3 0 6 -3 20 -7 30
-6 15 -5 16 9 5 9 -8 19 -9 22 -4 3 6 -1 15 -9 22 -8 7 -15 17 -15 23 0 7 4 7
12 -1 7 -7 16 -12 21 -12 5 0 1 7 -7 16 -18 17 -40 9 -32 -11 5 -13 -22 -30
-32 -20 -3 3 0 5 6 5 7 0 12 9 12 19 0 19 25 36 48 32 6 -1 12 3 12 8 0 5 -9
8 -20 6 -11 -2 -20 0 -20 5 0 4 -3 17 -6 27 -5 16 -4 16 8 2 12 -15 15 -15 28
-1 13 14 12 15 -3 9 -9 -3 -19 -2 -23 4 -3 5 -15 7 -27 4 -12 -2 -16 -2 -9 1
6 3 12 10 12 15 0 6 -4 8 -8 5 -5 -3 -9 1 -9 7 0 7 10 14 21 15 15 1 17 -1 7
-7 -11 -7 -9 -11 9 -21 12 -6 24 -9 28 -6 3 3 0 6 -6 6 -7 0 -11 3 -11 8 1 4
0 10 -1 15 -6 18 -5 33 3 38 5 4 4 15 -2 27 -7 14 -8 23 -1 27 5 3 10 1 10 -6
0 -7 3 -9 6 -6 4 4 1 13 -6 22 -10 12 -10 15 1 15 10 1 8 4 -3 11 -10 5 -18
15 -18 21 0 9 3 9 12 0 7 -7 17 -12 22 -12 6 0 0 7 -12 16 -12 8 -22 23 -22
32 0 13 5 12 21 -8 14 -18 17 -19 11 -5 -10 19 -12 28 -12 41 0 4 -6 2 -13 -4
-13 -11 -41 -11 -53 0 -3 4 6 5 20 4 14 -2 26 0 26 5 0 4 8 10 18 12 9 3 0 4
-20 3 -21 -2 -35 1 -32 6 3 5 12 7 20 4 9 -3 14 2 14 14 0 11 4 20 9 20 5 0
12 7 15 16 3 8 2 12 -4 9 -6 -3 -10 -1 -10 4 0 6 -7 11 -17 11 -18 0 -8 15 10
15 7 1 11 6 10 13 -2 7 3 12 10 12 6 0 4 5 -5 11 -10 5 -18 15 -18 20 0 6 6 7
13 2 16 -10 41 -14 32 -5 -4 4 -11 7 -16 7 -8 0 -11 8 -8 18 4 14 6 49 3 39
-3 -6 -10 -10 -15 -6 -15 9 -10 22 9 27 9 2 2 4 -16 4 -31 0 -32 -1 -16 -19
10 -10 13 -18 8 -18 -15 0 -35 38 -24 45 6 3 15 3 20 0 6 -3 10 3 10 15 0 13
4 19 12 14 7 -5 8 -3 3 6 -6 10 -11 9 -21 -4 -9 -14 -14 -14 -20 -4 -12 19
-14 39 -3 32 5 -3 7 -10 4 -15 -4 -5 -2 -9 4 -9 15 0 23 18 11 25 -7 5 -5 11
6 19 16 12 15 14 -7 29 -13 10 -18 17 -12 17 7 0 15 -5 18 -10 4 -6 11 -8 16
-5 5 4 3 13 -6 21 -8 9 -15 21 -15 27 0 7 5 4 11 -5 8 -15 13 -16 29 -6 16 10
22 10 32 -1 8 -8 8 -11 1 -7 -16 9 -40 -2 -40 -18 0 -8 6 -12 14 -9 7 3 10 9
7 14 -3 5 0 9 5 9 6 0 11 -6 11 -12 0 -9 3 -8 10 2 5 8 7 30 5 49 -4 32 -3 33
10 15 18 -24 19 -38 3 -28 -8 4 -10 3 -5 -2 5 -5 12 -9 15 -9 4 0 13 -4 19 -8
9 -6 11 -3 6 10 -3 10 -10 23 -14 29 -5 6 -3 11 6 11 8 0 12 -4 9 -9 -3 -4 0
-8 6 -8 6 0 9 -3 7 -7 -3 -5 0 -17 4 -28 9 -18 9 -18 5 3 -2 12 0 22 5 22 6 0
5 8 -1 19 -7 14 -7 22 2 27 6 4 8 3 5 -2 -3 -6 -2 -16 2 -23 7 -10 13 -11 31
-1 18 9 21 9 15 0 -5 -8 -3 -11 6 -8 8 3 13 11 11 17 -1 7 2 10 8 6 6 -3 8
-10 5 -15 -3 -4 2 -11 11 -14 9 -4 14 -9 11 -13 -4 -3 -13 0 -22 7 -8 7 -15 8
-15 3 0 -5 -7 -10 -15 -10 -8 0 -12 4 -9 9 7 11 -7 10 -26 -2 -13 -8 -12 -10
3 -10 10 0 15 -4 12 -10 -3 -5 -1 -10 4 -10 6 0 11 4 11 9 0 4 10 7 23 6 31
-3 31 -3 17 -20 -11 -13 -10 -14 4 -9 9 3 16 13 16 21 0 11 5 13 18 8 9 -4 27
-9 40 -10 19 -3 21 -1 11 11 -9 11 -9 14 1 14 9 0 10 3 1 13 -8 10 -7 14 4 14
8 0 12 -4 9 -9 -3 -4 -1 -8 5 -8 5 0 11 5 13 12 3 7 7 5 11 -6 4 -9 3 -15 -1
-12 -15 9 -31 -9 -22 -24 8 -13 10 -12 10 2 0 10 3 17 8 17 26 -4 32 2 22 20
-7 14 -7 22 2 27 6 4 8 3 5 -2 -3 -6 -2 -16 2 -23 7 -10 13 -11 30 -2 12 7 18
17 15 23 -4 7 -2 8 5 4 9 -6 9 -11 0 -22 -14 -17 2 -19 20 -1 11 9 12 9 7 0
-4 -7 -16 -18 -28 -24 -15 -8 -19 -8 -14 0 10 16 -6 14 -32 -5 -12 -8 -22 -21
-21 -27 0 -9 2 -8 6 1 2 6 10 9 15 6 7 -4 8 -2 4 4 -4 7 -1 12 9 12 9 0 14 -4
11 -8 -3 -5 1 -9 9 -9 8 0 12 3 10 6 -2 4 8 11 21 18 14 6 26 7 30 2 3 -5 0
-9 -5 -9 -6 0 -11 -7 -11 -15 0 -8 5 -15 11 -15 5 0 8 4 4 9 -9 15 13 23 33
12 14 -7 19 -6 19 4 0 7 -5 12 -11 11 -6 -2 -7 -1 -3 2 4 2 3 10 -2 16 -8 9
-7 13 4 13 8 0 12 -4 10 -8 -3 -4 2 -10 11 -13 22 -8 26 -8 19 3 -3 5 0 13 6
17 8 4 9 3 5 -4 -4 -7 -2 -12 3 -12 6 0 11 5 11 12 0 20 11 2 16 -28 3 -16 8
-31 11 -34 3 -3 3 5 0 18 -4 18 -2 22 10 18 8 -3 19 -6 24 -6 6 0 7 -4 4 -10
-3 -5 -1 -10 4 -10 6 0 11 4 11 9 0 4 10 7 23 6 31 -3 31 -3 17 -20 -11 -13
-10 -14 4 -9 9 3 16 13 16 21 0 10 6 13 16 9 8 -3 12 -2 9 4 -3 6 -1 10 6 10
8 0 9 4 0 13 -8 10 -7 14 4 14 8 0 12 -4 9 -9 -3 -4 0 -8 7 -8 10 0 10 -3 1
-12 -18 -18 -15 -27 7 -25 15 1 17 4 9 14 -8 9 -7 13 2 13 9 0 9 4 -1 18 -13
16 -13 16 5 2 18 -14 19 -13 13 2 -3 10 -2 20 4 23 5 4 9 3 8 -2 -4 -25 3 -39
21 -40 11 -1 18 2 15 7 -9 15 13 22 34 11 11 -6 21 -8 24 -3 2 4 2 1 1 -6 -2
-7 3 -15 11 -18 8 -4 13 -9 10 -13 -2 -4 2 -8 10 -8 13 0 13 3 0 17 -15 17
-11 30 9 30 7 0 6 -4 -2 -8 -8 -6 -1 -13 22 -25 29 -13 34 -14 29 -2 -3 8 -9
13 -13 10 -16 -10 -19 12 -5 31 11 13 13 14 10 3 -5 -12 1 -16 25 -17 36 -1
38 5 8 18 -17 6 -18 9 -6 9 9 1 20 -4 23 -9 4 -6 11 -8 16 -4 5 3 15 1 22 -4
14 -12 69 -13 62 -1 -3 4 -1 10 4 14 6 3 8 -4 6 -15 -2 -12 2 -23 10 -27 8 -3
13 -8 10 -12 -2 -4 2 -8 10 -8 13 0 12 3 -1 18 -16 17 -15 19 1 26 18 6 18 7
-1 14 -16 6 -16 8 -2 8 23 1 32 -16 13 -27 -13 -7 -12 -10 10 -20 15 -7 24 -8
21 -3 -9 14 26 23 38 10 8 -9 8 -10 -1 -5 -6 3 -15 1 -19 -5 -4 -7 -3 -9 4 -5
5 3 13 0 15 -6 4 -10 6 -10 6 0 1 7 6 10 12 6 7 -4 7 2 -1 17 -7 13 -9 21 -5
17 5 -4 14 -3 22 3 7 6 13 8 13 5 0 -4 12 6 26 21 14 15 22 21 18 13 -6 -12
-4 -13 7 -2 17 16 37 16 21 0 -7 -7 -12 -17 -12 -23 0 -5 5 -2 11 8 6 10 15
14 22 10 8 -4 8 -1 -1 9 -10 13 -10 17 0 22 7 3 4 4 -7 3 -11 -1 -23 -6 -27
-12 -5 -6 -8 -4 -8 4 0 8 -8 20 -17 27 -17 13 -17 14 2 7 16 -5 18 -4 9 8 -6
8 -14 22 -17 32 -6 15 -4 16 13 7 14 -8 19 -18 16 -34 -4 -23 -2 -24 33 -17 2
1 -2 8 -9 16 -11 13 -10 18 6 31 18 14 18 15 -3 5 -19 -10 -22 -8 -20 9 1 13
6 19 16 15 11 -5 12 -3 1 10 -10 12 -15 13 -21 3 -4 -6 -5 -17 -1 -23 3 -5 -3
-3 -14 5 -29 22 -30 24 -11 17 11 -4 17 -1 17 9 0 11 -6 14 -17 10 -16 -5 -16
-4 -3 6 8 7 16 22 18 33 3 20 2 20 -13 1 -8 -11 -15 -14 -15 -7 0 7 -5 9 -12
5 -8 -4 -10 -3 -5 2 5 5 14 9 20 9 7 1 11 7 9 14 -4 18 16 4 29 -21 6 -11 7
-18 2 -15 -5 4 -10 0 -10 -8 0 -8 3 -13 5 -10 3 3 15 -1 27 -9 19 -12 22 -12
22 0 0 8 -3 12 -5 9 -5 -5 -31 25 -32 37 0 3 6 8 13 11 6 2 5 3 -4 2 -11 -2
-16 6 -16 26 0 23 3 26 14 18 18 -16 17 -1 -2 17 -18 18 -20 38 -3 28 7 -4 8
-3 4 4 -9 15 6 16 20 2 7 -7 11 -6 11 4 0 8 -4 13 -9 10 -4 -3 -8 0 -8 7 0 7
-8 5 -20 -6 -11 -10 -20 -13 -20 -7 0 6 -8 9 -17 6 -15 -5 -15 -4 -3 4 8 6 17
9 21 6 4 -2 12 3 19 11 11 13 10 14 -6 8 -16 -6 -17 -4 -6 9 7 8 9 24 5 33 -4
12 -3 16 4 12 6 -4 17 1 24 11 13 15 12 16 -3 3 -19 -14 -25 -2 -8 15 8 8 6
15 -5 24 -17 14 -17 14 -19 -49 -1 -20 -7 -36 -15 -39 -14 -5 -14 -3 6 46 3 6
0 12 -7 12 -6 0 -9 4 -6 9 4 5 3 11 -1 14 -5 2 -2 2 5 1 6 -2 12 4 12 12 0 11
-6 14 -17 10 -16 -5 -16 -4 -3 6 8 7 16 22 18 33 3 20 2 20 -13 1 -8 -11 -15
-14 -15 -7 0 7 -5 9 -12 5 -8 -4 -10 -3 -5 2 5 5 14 9 20 9 7 1 11 7 9 14 -4
18 16 4 29 -21 6 -11 7 -18 2 -15 -5 4 -10 0 -10 -8 0 -8 3 -13 5 -10 3 3 15
-1 27 -9 19 -12 22 -12 22 0 0 8 -3 12 -5 9 -5 -5 -31 25 -32 37 0 3 6 8 13
11 6 2 5 3 -4 2 -11 -2 -16 6 -16 26 0 23 3 26 14 18 18 -16 17 -1 -2 17 -18
18 -20 38 -3 28 7 -4 8 -3 4 4 -9 15 6 16 20 2 7 -7 11 -6 11 4 0 8 -4 13 -9
10 -4 -3 -8 0 -8 7 0 7 -8 5 -20 -6 -11 -10 -20 -13 -20 -7 0 6 -8 9 -17 6
-15 -5 -15 -4 -3 4 8 6 17 9 21 6 4 -2 12 3 19 11 11 13 10 14 -6 8 -16 -6
-17 -4 -6 9 7 8 9 24 5 33 -4 12 -3 16 4 12 6 -4 17 1 24 11 13 15 12 16 -3 3
-19 -14 -25 -2 -8 15 8 8 6 15 -5 24 -17 14 -17 14 -19 -49 -1 -20 -7 -36 -15
-39 -10 -3 -12 0 -8 12 4 9 10 23 13 31 3 8 1 15 -6 15 -6 0 -9 4 -6 9 4 5 3
11 -1 14 -5 2 -2 2 5 1 6 -2 12 4 12 12 0 11 -6 14 -17 10 -16 -5 -16 -4 -3 6
8 7 16 22 18 33 3 20 2 20 -13 1 -8 -11 -15 -14 -15 -7 0 7 -5 9 -13 5 -7 -4
-9 -3 -4 2 5 5 14 9 20 9 7 1 11 7 9 14 -4 18 16 4 29 -21 6 -11 7 -18 2 -15
-5 4 -10 0 -10 -8 0 -8 3 -13 5 -10 3 3 15 -1 27 -9 19 -12 22 -12 22 0 0 8
-3 12 -5 9 -5 -5 -31 25 -32 37 0 3 6 8 13 11 6 2 5 3 -4 2 -11 -2 -16 6 -16
26 0 23 3 26 14 18 18 -16 17 -1 -2 17 -18 18 -20 38 -3 28 7 -4 8 -3 4 4 -9
15 6 16 20 2 7 -7 11 -6 11 4 0 8 -4 13 -9 10 -4 -3 -8 0 -8 7 0 7 -8 5 -20
-6 -11 -10 -20 -13 -20 -7 0 6 -8 9 -17 6 -15 -5 -15 -4 -3 4 8 6 17 9 21 6 4
-2 12 3 19 11 11 13 10 14 -6 8 -16 -6 -17 -4 -6 9 7 8 9 24 5 33 -4 12 -3 16
4 12 6 -4 17 1 24 11 13 15 12 16 -3 3 -19 -14 -25 -2 -8 15 8 8 6 15 -5 24
-17 14 -17 14 -19 -49 -1 -20 -7 -36 -15 -39 -14 -5 -14 -3 6 46 3 6 0 12 -7
12 -6 0 -9 4 -6 9 4 5 3 11 -1 14 -5 2 -2 2 5 1 6 -2 12 4 12 12 0 11 -6 14
-17 10 -16 -5 -16 -4 -3 6 8 7 16 22 18 33 3 20 2 20 -13 1 -8 -11 -15 -14
-15 -7 0 7 -5 9 -12 5 -8 -4 -10 -3 -5 2 5 5 14 9 20 9 7 1 11 7 9 14 -4 18
16 4 29 -21 6 -11 7 -18 2 -15 -5 4 -10 0 -10 -8 0 -8 3 -13 5 -10 3 3 15 -1
27 -9 19 -12 22 -12 22 0 0 8 -3 12 -5 9 -5 -5 -31 25 -32 37 0 3 6 8 13 11 6
2 5 3 -4 2 -11 -2 -16 6 -16 26 0 23 3 26 14 18 18 -16 17 -1 -2 17 -18 18
-20 38 -3 28 7 -4 8 -3 4 4 -9 15 6 16 20 2 7 -7 11 -6 11 4 0 8 -4 13 -9 10
-4 -3 -8 0 -8 7 0 7 -8 5 -20 -6 -11 -10 -20 -13 -20 -7 0 6 -8 9 -17 6 -15
-5 -15 -4 -3 4 8 6 17 9 21 6 4 -2 12 3 19 11 11 13 10 14 -6 8 -16 -6 -17 -4
-6 9 7 8 9 24 5 33 -4 12 -3 16 4 12 6 -4 17 1 24 11 13 15 12 16 -3 3 -19
-14 -25 -2 -8 15 8 8 6 15 -5 24 -17 14 -17 14 -19 -49 -1 -20 -7 -36 -15 -39
-14 -5 -14 -3 6 46 3 6 0 12 -7 12 -6 0 -9 4 -6 9 4 5 3 11 -1 14 -5 2 -2 2 5
1 6 -2 12 4 12 12 0 11 -6 14 -17 10 -16 -5 -16 -4 -3 6 8 7 16 22 18 33 3 20
2 20 -13 1 -8 -11 -15 -14 -15 -7 0 7 -5 9 -12 5 -8 -4 -10 -3 -5 2 5 5 14 9
20 9 7 1 11 7 9 14 -4 18 16 4 29 -21 6 -11 7 -18 2 -15 -5 4 -10 0 -10 -8 0
-8 3 -13 5 -10 3 3 15 -1 27 -9 19 -12 22 -12 22 0 0 8 -3 12 -5 9 -5 -5 -31
25 -32 37 0 3 6 8 13 11 6 2 5 3 -4 2 -11 -2 -16 6 -16 26 0 23 3 26 14 18 18
-16 17 -1 -2 17 -18 18 -20 38 -3 28 7 -4 8 -3 4 4 -9 15 6 16 20 2 7 -7 11
-6 11 4 0 8 -4 13 -9 10 -4 -3 -8 0 -8 7 0 7 -8 5 -20 -6 -11 -10 -20 -13 -20
-7 0 6 -8 9 -17 6 -15 -5 -15 -4 -3 4 8 6 17 9 21 6 4 -2 12 3 19 11 11 13 10
14 -6 8 -16 -6 -17 -4 -6 9 7 8 9 24 5 33 -4 12 -3 16 4 12 6 -4 17 1 24 11
13 15 12 16 -3 3 -19 -14 -25 -2 -8 15 8 8 6 15 -5 24 -17 14 -17 14 -19 -49
-1 -20 -7 -36 -15 -39 -10 -3 -12 0 -8 12 4 9 10 23 13 31 3 8 1 15 -6 15 -6
0 -9 4 -6 9 4 5 3 11 -1 14 -5 2 -2 2 5 1 6 -2 12 4 12 12 0 11 -6 14 -17 10
-16 -5 -16 -5 0 8 10 8 18 17 18 20 -1 9 10 9 17 0 4 -4 2 -4 -4 -1 -6 3 -11
0 -11 -8 0 -8 3 -13 5 -10 3 3 15 -1 27 -9 19 -12 22 -12 22 0 0 8 -3 12 -5 9
-3 -3 -12 4 -19 15 -12 18 -13 24 -1 38 12 15 11 16 -4 4 -12 -10 -22 -11 -36
-3 -11 6 -23 7 -28 3 -5 -4 -2 1 5 11 14 18 2 24 -15 7 -6 -6 -10 -3 -11 10
-1 11 3 20 8 20 6 0 7 -5 3 -12 -4 -7 -3 -8 4 -4 7 4 20 2 29 -3 14 -8 15 -10
3 -11 -13 0 -13 -2 0 -9 15 -10 30 -6 30 8 0 5 -13 14 -30 21 -27 11 -35 21
-31 43 0 4 -4 7 -10 7 -6 0 -9 -6 -6 -13 3 -7 -1 -21 -9 -32 -9 -11 -14 -14
-14 -6 0 11 -3 11 -17 0 -11 -10 -14 -10 -9 -1 9 15 1 15 -26 1 -16 -8 -19 -8
-13 1 5 8 3 11 -6 8 -8 -3 -12 -12 -11 -19 2 -8 0 -10 -5 -6 -4 5 -9 13 -9 18
-1 5 -2 12 -3 17 0 4 -10 13 -21 20 -21 12 -21 12 -4 -13 9 -14 14 -28 10 -32
-3 -3 -6 -2 -6 4 0 5 -7 10 -15 10 -10 0 -14 -6 -10 -16 3 -10 -1 -9 -10 4
-12 16 -18 17 -24 7 -7 -11 -9 -10 -14 3 -4 9 -3 13 3 10 6 -3 10 -2 10 2 0 5
-10 14 -22 22 -22 13 -22 13 -8 -4 14 -16 13 -17 -7 -11 -12 4 -24 2 -28 -3
-3 -6 0 -8 8 -5 8 3 19 -1 25 -9 9 -11 8 -14 -3 -14 -8 0 -11 5 -8 10 3 5 0 7
-8 5 -8 -3 -12 -12 -11 -19 2 -8 0 -10 -5 -6 -4 5 -9 13 -9 18 -1 5 -2 12 -3
17 0 4 -10 13 -21 20 -21 12 -21 12 -4 -13 9 -14 14 -28 10 -32 -3 -3 -6 -2
-6 4 0 5 -7 10 -15 10 -10 0 -14 -6 -10 -16 3 -10 -1 -9 -10 4 -11 14 -18 17
-23 8 -5 -9 -12 -6 -21 10 -13 20 -13 21 2 8 10 -7 17 -9 17 -5 0 5 -9 15 -19
21 -17 11 -19 10 -16 -5 2 -10 -5 -24 -16 -30 -10 -7 -19 -9 -18 -5 3 19 -2
33 -11 33 -5 0 -6 -7 -3 -17 4 -11 3 -14 -6 -9 -6 4 -19 2 -28 -6 -9 -7 -14
-8 -10 -2 13 22 -22 23 -49 1 -16 -12 -25 -16 -21 -10 4 6 3 14 -2 17 -5 4
-12 2 -16 -4 -3 -5 -11 -10 -18 -10 -6 0 -2 6 8 14 11 8 23 12 27 10 5 -3 8 0
8 6 0 7 -7 9 -15 6 -9 -3 -18 1 -22 10 -5 12 -8 12 -20 -6 -8 -11 -12 -24 -9
-28 3 -5 -1 -9 -9 -9 -8 0 -12 4 -9 9 4 5 0 9 -7 7 -27 -3 -40 1 -34 11 3 6 1
10 -4 10 -10 0 -15 -13 -13 -31 1 -3 -5 -6 -13 -6 -8 0 -12 4 -9 9 3 4 0 8 -6
8 -6 0 -8 5 -4 11 4 8 9 7 15 -2 5 -8 9 -9 9 -4 0 6 -4 16 -9 23 -6 11 -10 10
-16 -5 -5 -10 -9 -21 -9 -25 -1 -3 -5 -10 -10 -15 -5 -4 -6 -3 -3 3 8 13 -20
40 -30 30 -3 -3 -1 -6 5 -6 7 0 12 -5 12 -11 0 -5 -5 -7 -10 -4 -6 4 -18 1
-27 -7 -12 -9 -15 -9 -9 0 4 6 3 12 -3 12 -5 0 -13 9 -16 21 -6 19 -7 20 -20
2 -7 -10 -11 -21 -9 -25 2 -4 -1 -10 -8 -14 -7 -4 -10 -4 -6 1 9 9 -9 35 -23
35 -5 0 -9 -5 -9 -11 0 -5 5 -7 10 -4 6 3 10 2 10 -3 0 -11 -30 -25 -38 -17
-3 3 0 5 6 5 6 0 9 7 6 15 -4 8 -10 15 -16 15 -5 0 -6 -4 -3 -10 3 -5 1 -10
-5 -10 -6 0 -9 -4 -6 -8 3 -5 -1 -9 -9 -9 -8 0 -12 3 -10 7 2 4 -9 7 -25 8
-17 0 -30 -4 -30 -10 0 -6 -3 -8 -6 -5 -4 4 -1 14 7 24 12 15 12 16 -4 10 -10
-4 -21 -7 -23 -7 -3 0 -3 -4 1 -9 3 -5 0 -13 -6 -17 -7 -4 -10 -3 -7 2 3 5 0
15 -8 22 -8 7 -14 8 -14 2 0 -5 -4 -10 -10 -10 -5 0 -7 8 -4 18 5 14 4 14 -4
2 -6 -8 -9 -17 -6 -21 2 -4 -1 -11 -7 -15 -7 -4 -9 -3 -6 2 3 6 -3 16 -15 23
-11 7 -17 8 -14 3 10 -17 -23 -22 -39 -5 -9 8 -19 13 -22 9 -4 -3 -17 1 -31
10 -13 9 -21 11 -18 5 9 -14 3 -14 -29 1 -29 13 -32 23 -7 37 9 6 12 11 5 11
-6 0 -15 -5 -18 -10 -7 -12 -25 -4 -25 11 0 6 5 7 12 3 7 -4 8 -3 4 4 -4 7 -1
12 6 12 8 0 6 5 -4 11 -10 5 -18 15 -18 21 0 9 3 9 12 0 7 -7 17 -12 22 -12 6
0 0 7 -12 16 -12 8 -22 23 -22 32 0 13 5 12 21 -8 14 -18 17 -19 11 -5 -10 19
-12 28 -12 41 0 4 -6 2 -13 -4 -13 -11 -41 -11 -53 0 -3 4 6 5 20 4 14 -2 26
0 26 5 0 4 8 10 18 12 9 3 0 4 -20 3 -21 -2 -35 1 -32 6 3 5 12 7 20 4 9 -3
14 2 14 14 0 11 4 20 9 20 5 0 12 7 15 16 3 8 2 12 -4 9 -6 -3 -10 -1 -10 4 0
6 -7 11 -16 11 -8 0 -12 5 -9 10 4 6 10 8 15 5 13 -8 24 15 12 27 -12 12 -4
41 9 32 5 -3 6 2 3 10 -3 9 -14 16 -23 15 -9 0 -11 -3 -4 -5 13 -6 6 -34 -8
-34 -4 0 -5 7 -2 17 4 11 3 14 -6 9 -10 -6 -10 -4 0 12 7 12 18 20 23 19 6 -1
10 4 8 12 -2 9 3 11 13 7 10 -3 14 -2 10 5 -4 6 -13 8 -21 5 -8 -3 -14 0 -14
6 0 6 -3 8 -6 5 -4 -4 -1 -15 7 -24 12 -17 12 -17 -5 -1 -21 19 -13 40 12 32
10 -4 13 -2 7 3 -16 13 -11 44 10 60 16 12 16 14 3 10 -10 -3 -20 -2 -23 3 -3
5 3 10 12 12 15 3 14 5 -5 10 -12 3 -20 2 -16 -3 9 -15 -1 -10 -17 9 -15 18
-14 19 20 16 35 -2 61 10 61 27 0 5 -8 9 -17 9 -15 0 -16 -2 -3 -10 8 -5 13
-10 10 -11 -3 0 -15 -2 -27 -5 -23 -4 -28 13 -9 27 4 4 3 16 -3 27 -9 17 -8
21 7 24 14 3 13 5 -6 10 -12 3 -20 3 -17 -2 3 -4 -1 -10 -8 -13 -7 -3 -13 3
-13 12 0 9 7 18 16 19 64 7 83 24 55 50 -12 11 -15 11 -8 2 15 -20 4 -34 -29
-38 -23 -3 -28 1 -28 18 0 12 -4 19 -8 16 -5 -3 -9 1 -9 9 0 11 4 12 14 4 7
-6 13 -18 13 -26 0 -18 22 -12 28 8 3 11 2 11 -7 -1 -6 -9 -11 -10 -11 -3 0 6
-3 20 -7 30 -6 15 -5 16 9 5 9 -8 19 -9 22 -4 3 6 -1 15 -9 22 -8 7 -15 17
-15 23 0 7 4 7 12 -1 7 -7 16 -12 21 -12 5 0 1 7 -7 16 -18 17 -40 9 -32 -11
5 -13 -22 -30 -32 -20 -3 3 0 5 6 5 7 0 12 9 12 19 0 19 25 36 48 32 6 -1 12
3 12 8 0 5 -9 8 -20 6 -11 -2 -20 0 -20 5 0 4 -3 17 -6 27 -5 16 -4 16 8 2 12
-15 15 -15 28 -1 13 14 12 15 -3 9 -9 -3 -19 -2 -23 4 -3 5 -15 7 -27 4 -12
-2 -16 -2 -9 1 6 3 12 10 12 15 0 6 -4 8 -8 5 -5 -3 -9 1 -9 7 0 7 10 14 21
15 15 1 17 -1 7 -7 -11 -7 -9 -11 9 -21 12 -6 24 -9 28 -6 3 3 0 6 -6 6 -7 0
-11 3 -11 8 1 4 0 10 -1 15 -6 18 -5 33 3 38 5 4 4 15 -2 27 -7 14 -8 23 -1
27 5 3 10 1 10 -6 0 -7 3 -9 6 -6 4 4 1 13 -6 22 -10 12 -10 15 1 15 10 1 8 4
-3 11 -10 5 -18 15 -18 21 0 9 3 9 12 0 7 -7 17 -12 22 -12 6 0 0 7 -12 16
-12 8 -22 23 -22 32 0 13 5 12 21 -8 14 -18 17 -19 11 -5 -10 19 -12 28 -12
41 0 4 -6 2 -12 -3 -13 -10 -53 -14 -43 -5 3 3 -1 12 -8 20 -9 11 -4 11 16 -2
15 -10 27 -14 27 -8 0 6 6 12 13 15 6 2 5 3 -4 2 -9 -1 -23 2 -30 7 -11 8 -10
9 4 4 12 -4 17 0 17 14 0 11 4 20 9 20 5 0 12 7 15 16 3 8 2 12 -4 9 -6 -3
-10 -1 -10 4 0 6 -7 11 -16 11 -8 0 -12 5 -9 10 4 6 10 8 15 5 13 -8 24 15 12
27 -13 13 -4 40 11 31 6 -3 7 -1 3 5 -4 6 -14 9 -24 6 -16 -5 -16 -5 0 8 11
10 14 19 7 29 -7 11 -9 11 -9 -3 0 -10 -4 -18 -9 -18 -6 0 -8 9 -6 20 4 22 -5
20 -37 -7 -15 -13 -16 -13 -11 6 3 13 1 21 -7 21 -9 0 -9 4 1 18 13 15 12 16
-4 3 -14 -11 -15 -17 -5 -28 9 -11 8 -13 -3 -11 -8 2 -13 -2 -12 -8 1 -6 -5
-11 -12 -11 -9 0 -11 5 -7 11 9 12 14 62 6 53 -3 -3 -6 -12 -8 -20 -1 -8 -10
-23 -21 -33 -17 -17 -18 -17 -12 -1 3 9 2 17 -3 17 -6 0 -10 -5 -10 -12 0 -6
-3 -8 -6 -5 -4 4 -1 13 6 22 11 13 10 14 -6 8 -17 -6 -18 -5 -4 13 14 19 14
19 -8 0 -12 -11 -22 -16 -22 -11 0 4 -7 2 -15 -5 -13 -10 -19 -10 -34 4 -15
13 -18 14 -18 1 0 -8 4 -12 9 -9 4 3 8 1 8 -4 0 -5 -11 -9 -25 -9 -21 0 -23 2
-14 13 7 8 9 17 5 21 -3 3 -6 1 -6 -6 0 -9 -8 -11 -21 -8 -16 4 -18 3 -9 -7 7
-10 6 -17 -7 -27 -17 -13 -17 -13 -4 4 14 17 13 18 -5 15 -10 -1 -25 -10 -32
-18 -11 -13 -11 -11 -2 8 6 12 15 20 19 18 4 -3 8 1 8 9 0 16 -13 20 -19 6 -1
-5 -19 -10 -38 -11 -56 -3 -72 -1 -65 10 3 6 1 10 -4 10 -6 0 -11 -7 -11 -15
0 -8 6 -15 14 -15 20 0 29 -17 15 -26 -8 -4 -9 -3 -5 4 5 8 0 12 -14 12 -11 0
-23 7 -26 15 -4 8 -10 15 -15 15 -6 0 -5 -8 1 -19 13 -25 13 -31 -1 -31 -5 0
-8 3 -5 8 2 4 -2 18 -10 32 l-15 25 4 -30 c2 -16 2 -24 0 -17 -6 16 -13 15
-30 -5 -11 -13 -10 -10 1 9 15 25 15 27 -1 21 -12 -5 -14 -3 -8 8 7 12 6 12
-7 1 -11 -9 -18 -9 -21 -2 -3 6 -4 5 -2 -2 1 -7 8 -12 14 -10 6 1 11 -3 11 -9
0 -6 -9 -8 -22 -3 -21 6 -22 6 -8 -12 14 -18 14 -18 -2 -5 -14 11 -18 11 -18
1 0 -8 -3 -10 -6 -7 -4 4 -1 13 6 22 15 18 0 20 -19 3 -11 -11 -12 -8 -7 12 3
14 3 19 0 13 -3 -7 -12 -13 -20 -13 -8 0 -14 6 -14 13 0 9 -2 9 -9 -1 -4 -8
-12 -14 -16 -14 -4 0 -12 6 -17 14 -7 9 -8 3 -3 -17 l6 -30 -22 30 c-11 17
-19 22 -15 13 3 -10 1 -20 -4 -23 -9 -5 -14 6 -12 26 1 3 -5 6 -12 6 -7 0 -13
-6 -13 -13 0 -7 3 -11 7 -9 4 2 7 -2 7 -10 0 -8 -4 -12 -8 -9 -4 2 -9 1 -12
-3 -2 -5 -2 -2 -1 5 2 6 -1 12 -5 12 -5 0 -12 -6 -14 -12 -4 -10 -6 -10 -6 -1
-1 6 4 15 9 18 13 8 13 25 -1 25 -5 0 -7 -4 -4 -10 3 -5 1 -10 -4 -10 -6 0
-11 6 -11 13 0 9 -2 9 -9 -1 -4 -8 -12 -14 -16 -14 -4 0 -12 6 -17 14 -7 9 -8
4 -4 -14 3 -15 2 -30 -4 -33 -6 -4 -7 1 -3 11 4 11 3 15 -5 10 -6 -3 -14 -1
-18 5 -5 8 -3 9 7 4 11 -7 12 -6 2 7 -7 8 -10 18 -6 21 3 4 4 7 0 7 -3 0 -8
-4 -12 -9z m2 -40 c1 -20 -1 -22 -8 -9 -6 11 -16 15 -27 11 -14 -6 -15 -4 -5
8 19 24 38 19 40 -10z m-883 4 c-4 -8 -11 -12 -16 -9 -6 4 -5 10 3 15 19 12
19 11 13 -6z m68 -2 c-6 -3 -9 -10 -6 -15 4 -7 2 -8 -5 -4 -9 6 -9 11 0 22 6
8 15 12 18 8 3 -4 0 -9 -7 -11z m94 -4 c0 -13 -3 -15 -13 -7 -7 6 -13 14 -13
18 0 3 6 7 13 7 7 0 13 -8 13 -18z m444 11 c0 -5 -5 -10 -11 -10 -5 0 -7 5 -4
10 3 6 8 10 11 10 2 0 4 -4 4 -10z m49 -16 c-6 -8 -15 -12 -18 -8 -3 4 0 9 7
11 6 3 9 10 6 15 -4 7 -2 8 5 4 9 -6 9 -11 0 -22z m307 5 c0 -13 -3 -15 -13
-7 -7 6 -13 14 -13 18 0 3 6 7 13 7 7 0 13 -8 13 -18z m160 0 c0 -13 -3 -15
-13 -7 -7 6 -13 14 -13 18 0 3 6 7 13 7 7 0 13 -8 13 -18z m514 12 c0 -4 -9
-12 -20 -19 -12 -7 -20 -8 -20 -2 0 5 5 10 11 10 5 0 8 4 5 8 -3 5 1 9 9 9 8
0 15 -3 15 -6z m-1675 -12 c11 -16 1 -19 -13 -3 -7 8 -8 14 -3 14 5 0 13 -5
16 -11z m75 7 c0 -2 -7 -7 -16 -10 -8 -3 -12 -2 -9 4 6 10 25 14 25 6z m211
-13 c13 -16 12 -17 -3 -4 -14 11 -18 11 -18 1 0 -8 -3 -11 -6 -7 -5 5 3 27 10
27 2 0 10 -8 17 -17z m217 3 c-7 -8 -15 -12 -17 -11 -5 6 10 25 20 25 5 0 4
-6 -3 -14z m263 -3 c13 -16 12 -17 -3 -4 -14 11 -18 11 -18 1 0 -8 -3 -11 -6
-7 -5 5 3 27 10 27 2 0 10 -8 17 -17z m697 3 c-7 -8 -15 -12 -17 -11 -5 6 10
25 20 25 5 0 4 -6 -3 -14z m369 -3 c-4 -3 0 -17 8 -30 18 -27 9 -31 -11 -5
-17 21 -18 42 -2 42 6 0 8 -3 5 -7z m29 -82 c2 -7 0 -7 -3 -1 -3 7 -9 8 -17 1
-9 -8 -13 -7 -13 3 0 17 30 14 33 -3z m-13 -46 c4 0 7 -3 7 -7 -1 -21 -13 -34
-33 -35 -12 0 -16 1 -9 4 10 4 10 8 0 21 -10 14 -10 15 2 5 24 -21 34 -14 14
9 -11 13 -13 18 -4 12 8 -5 18 -9 23 -9z m-1928 -35 c-3 -4 0 -11 5 -13 6 -3
5 -4 -1 -3 -7 1 -13 10 -15 19 -1 9 2 15 7 11 5 -3 7 -9 4 -14z m1924 -94 c9
-10 9 -16 1 -21 -6 -4 -14 -4 -17 -1 -4 3 0 6 8 6 10 1 8 5 -5 15 -11 8 -15
15 -9 15 6 0 16 -6 22 -14z m-9 -48 c0 8 5 12 12 10 14 -5 19 -36 7 -44 -5 -3
-5 -13 1 -24 7 -13 7 -21 0 -25 -6 -4 -8 -10 -6 -14 3 -4 -5 -8 -16 -8 -11 -1
-18 1 -14 4 3 3 0 13 -6 22 -10 13 -10 14 2 4 19 -18 26 -16 27 7 1 13 -2 18
-10 13 -7 -3 -4 3 6 14 12 14 15 23 8 28 -6 3 -11 0 -11 -7 0 -9 -3 -9 -10 2
-5 8 -10 20 -10 25 0 6 5 3 10 -5 7 -11 10 -12 10 -2z m9 -206 c7 -13 6 -19
-2 -19 -7 0 -13 9 -13 19 0 10 1 18 3 18 1 0 7 -8 12 -18z m-1888 -209 c13
-16 12 -17 -3 -4 -17 13 -22 21 -14 21 2 0 10 -8 17 -17z m1854 7 c-3 -5 -1
-10 6 -10 7 0 10 -3 6 -6 -9 -9 -28 6 -22 17 4 5 8 9 11 9 3 0 2 -4 -1 -10z
m45 -36 c-6 -6 -7 -14 -3 -18 4 -3 -3 -5 -15 -3 -12 2 -25 7 -29 11 -5 4 -3 7
2 6 18 -4 35 0 34 8 -1 4 -1 14 0 22 1 13 2 13 11 0 5 -9 5 -19 0 -26z m-1935
-54 c-3 -4 0 -11 5 -13 6 -3 5 -4 -1 -3 -7 1 -13 10 -15 19 -1 9 2 15 7 11 5
-3 7 -9 4 -14z m1895 -24 c0 -2 -8 -10 -17 -17 -16 -13 -17 -12 -4 4 13 16 21
21 21 13z m44 -27 c-3 -6 -7 -9 -8 -7 -1 2 -8 12 -16 22 -14 18 -14 19 8 7 12
-7 20 -17 16 -22z m-24 -9 c0 -5 -4 -10 -10 -10 -5 0 -10 5 -10 10 0 6 5 10
10 10 6 0 10 -4 10 -10z m20 -19 c0 -5 -7 -12 -16 -15 -14 -5 -15 -4 -4 9 14
17 20 19 20 6z m-23 -74 c-2 -6 -9 -12 -15 -13 -7 -1 -8 0 -2 3 8 3 7 9 -1 19
-10 12 -9 13 5 8 9 -4 15 -11 13 -17z m29 -86 c2 -7 0 -7 -3 -1 -3 7 -10 7
-21 -2 -10 -8 -13 -9 -9 -1 4 6 1 14 -5 17 -7 2 -2 3 11 2 14 -2 26 -8 27 -15z
m-46 -25 c0 -2 -8 -10 -17 -17 -16 -13 -17 -12 -4 4 13 16 21 21 21 13z
m-1866 -18 c-3 -4 -12 -4 -21 -1 -11 4 -14 3 -9 -5 4 -7 2 -12 -3 -12 -12 0
-15 13 -5 23 9 8 44 4 38 -5z m1908 -14 c-12 -31 -19 -35 -31 -20 -7 8 -10 19
-7 25 8 12 42 7 38 -5z m-1922 -59 c0 -8 -2 -15 -4 -15 -2 0 -13 -3 -23 -6
-17 -5 -17 -5 0 6 9 6 15 15 12 21 -4 5 -1 9 4 9 6 0 11 -7 11 -15z m1909 -59
c10 -12 8 -17 -8 -25 -14 -8 -22 -8 -27 1 -4 6 -3 8 2 5 6 -3 16 -2 24 3 12 7
9 11 -10 19 -15 6 -19 10 -9 10 9 1 22 -5 28 -13z m9 -51 c-2 -6 -6 -9 -10 -7
-18 5 -5 -18 28 -52 19 -20 33 -42 31 -49 -3 -6 -6 -3 -6 8 -1 17 -3 17 -11 5
-9 -13 -10 -13 -10 0 0 16 -44 72 -51 65 -3 -2 -5 4 -5 15 0 10 4 16 8 14 4
-3 8 0 8 6 0 7 5 10 11 8 6 -2 9 -8 7 -13z m-8 -60 c0 -2 -9 -3 -19 -2 -11 0
-18 5 -15 9 4 6 34 0 34 -7z m-2991 -38 c18 7 16 4 -14 -17 -11 -8 -17 -10
-13 -6 4 5 2 16 -4 25 -10 13 -10 14 1 4 7 -6 21 -9 30 -6z m120 0 c18 7 16 4
-14 -17 -11 -8 -17 -10 -13 -6 4 5 2 16 -4 25 -10 13 -10 14 1 4 7 -6 21 -9
30 -6z m120 0 c18 7 16 4 -14 -17 -11 -8 -17 -10 -13 -6 4 5 2 16 -4 25 -10
13 -10 14 1 4 7 -6 21 -9 30 -6z m2841 -8 c-7 -11 -14 -18 -17 -15 -3 3 0 12
7 21 18 21 23 19 10 -6z m410 11 c0 -5 -5 -10 -11 -10 -5 0 -7 5 -4 10 3 6 8
10 11 10 2 0 4 -4 4 -10z m240 0 c0 -5 -5 -10 -11 -10 -5 0 -7 5 -4 10 3 6 8
10 11 10 2 0 4 -4 4 -10z m-3957 -15 c4 -8 3 -16 -1 -19 -4 -3 -9 4 -9 15 -2
23 3 25 10 4z m3354 -2 c0 -9 -4 -10 -14 -2 -10 9 -13 8 -13 -1 0 -8 -3 -11
-6 -7 -9 9 3 24 19 24 7 0 14 -6 14 -14z m-2713 -1 c3 -5 -1 -9 -9 -9 -8 0
-12 4 -9 9 3 4 7 8 9 8 2 0 6 -4 9 -8z m3950 -67 c-4 -8 -8 -15 -10 -15 -2 0
-4 7 -4 15 0 8 4 15 10 15 5 0 7 -7 4 -15z m46 -69 c0 -3 -4 -8 -10 -11 -5 -3
-10 -1 -10 4 0 6 5 11 10 11 6 0 10 -2 10 -4z m-57 -41 c-3 -9 -8 -14 -10 -11
-3 3 -2 9 2 15 9 16 15 13 8 -4z m-4653 1 c0 -3 -4 -8 -10 -11 -5 -3 -10 -1
-10 4 0 6 5 11 10 11 6 0 10 -2 10 -4z m4670 -50 c0 -2 -7 -7 -16 -10 -8 -3
-12 -2 -9 4 6 10 25 14 25 6z m18 -81 c-3 -3 -13 -2 -22 1 -14 5 -15 9 -4 15
13 8 36 -6 26 -16z m-4704 -2 c-9 -7 -21 -10 -26 -7 -14 9 1 23 23 21 19 -1
19 -2 3 -14z m11 -23 c-3 -5 -12 -10 -18 -10 -7 0 -6 4 3 10 19 12 23 12 15 0z
m4694 -13 c0 -9 -2 -9 -5 0 -3 7 -13 9 -22 6 -14 -4 -14 -3 -2 5 16 12 30 7
29 -11z m-4695 -85 c3 -5 -4 -8 -16 -7 -12 1 -22 9 -24 18 -2 13 2 15 16 7 11
-6 21 -14 24 -18z m4716 -26 c0 -3 -4 -8 -10 -11 -5 -3 -10 -1 -10 4 0 6 5 11
10 11 6 0 10 -2 10 -4z m-57 -41 c-3 -9 -8 -14 -10 -11 -3 3 -2 9 2 15 9 16
15 13 8 -4z m17 -49 c0 -2 -7 -7 -16 -10 -8 -3 -12 -2 -9 4 6 10 25 14 25 6z
m-4676 -44 c3 -5 -4 -8 -16 -7 -12 1 -22 9 -24 18 -2 13 2 15 16 7 11 -6 21
-14 24 -18z m4694 -37 c-3 -3 -13 -2 -22 1 -14 5 -15 9 -4 15 13 8 36 -6 26
-16z m1 -38 c0 -9 -2 -9 -5 0 -3 7 -13 9 -22 6 -14 -4 -14 -3 -2 5 16 12 30 7
29 -11z m-4689 9 c0 -3 -4 -8 -10 -11 -5 -3 -10 -1 -10 4 0 6 5 11 10 11 6 0
10 -2 10 -4z m-31 -133 c-12 -14 -12 -16 2 -11 12 5 15 1 11 -18 -2 -13 -8
-24 -13 -24 -5 0 -6 6 -3 14 3 8 1 17 -5 20 -12 8 -3 36 11 36 6 0 4 -8 -3
-17z m4741 13 c0 -3 -4 -8 -10 -11 -5 -3 -10 -1 -10 4 0 6 5 11 10 11 6 0 10
-2 10 -4z m-57 -41 c-3 -9 -8 -14 -10 -11 -3 3 -2 9 2 15 9 16 15 13 8 -4z
m17 -49 c0 -2 -7 -7 -16 -10 -8 -3 -12 -2 -9 4 6 10 25 14 25 6z m-4677 -25
c-4 -3 -11 -10 -15 -15 -4 -4 -6 1 -5 12 1 12 6 18 15 15 7 -3 10 -9 5 -12z
m4695 -56 c-3 -3 -13 -2 -22 1 -14 5 -15 9 -4 15 13 8 36 -6 26 -16z m1 -38
c0 -9 -2 -9 -5 0 -3 7 -13 9 -22 6 -14 -4 -14 -3 -2 5 16 12 30 7 29 -11z
m-4701 -101 c-7 -8 -17 -12 -22 -9 -4 3 -2 9 5 14 22 13 31 11 17 -5z m4722
-10 c0 -3 -4 -8 -10 -11 -5 -3 -10 -1 -10 4 0 6 5 11 10 11 6 0 10 -2 10 -4z
m-57 -41 c-3 -9 -8 -14 -10 -11 -3 3 -2 9 2 15 9 16 15 13 8 -4z m-4653 1 c0
-3 -4 -8 -10 -11 -5 -3 -10 -1 -10 4 0 6 5 11 10 11 6 0 10 -2 10 -4z m4670
-50 c0 -2 -7 -7 -16 -10 -8 -3 -12 -2 -9 4 6 10 25 14 25 6z m18 -81 c-3 -3
-13 -2 -22 1 -14 5 -15 9 -4 15 13 8 36 -6 26 -16z m-4704 -2 c-9 -7 -21 -10
-26 -7 -14 9 1 23 23 21 19 -1 19 -2 3 -14z m11 -23 c-3 -5 -12 -10 -18 -10
-7 0 -6 4 3 10 19 12 23 12 15 0z m4694 -13 c0 -9 -2 -9 -5 0 -3 7 -13 9 -22
6 -14 -4 -14 -3 -2 5 16 12 30 7 29 -11z m-4695 -85 c3 -5 -4 -8 -16 -7 -12 1
-22 9 -24 18 -2 13 2 15 16 7 11 -6 21 -14 24 -18z m4716 -26 c0 -3 -4 -8 -10
-11 -5 -3 -10 -1 -10 4 0 6 5 11 10 11 6 0 10 -2 10 -4z m-57 -41 c-3 -9 -8
-14 -10 -11 -3 3 -2 9 2 15 9 16 15 13 8 -4z m17 -49 c0 -2 -7 -7 -16 -10 -8
-3 -12 -2 -9 4 6 10 25 14 25 6z m-4676 -44 c3 -5 -4 -8 -16 -7 -12 1 -22 9
-24 18 -2 13 2 15 16 7 11 -6 21 -14 24 -18z m4694 -37 c-3 -3 -13 -2 -22 1
-14 5 -15 9 -4 15 13 8 36 -6 26 -16z m1 -38 c0 -9 -2 -9 -5 0 -3 7 -13 9 -22
6 -14 -4 -14 -3 -2 5 16 12 30 7 29 -11z m-4689 9 c0 -3 -4 -8 -10 -11 -5 -3
-10 -1 -10 4 0 6 5 11 10 11 6 0 10 -2 10 -4z m-31 -133 c-12 -14 -12 -16 2
-11 12 5 15 1 11 -18 -2 -13 -8 -24 -13 -24 -5 0 -6 6 -3 14 3 8 1 17 -5 20
-12 8 -3 36 11 36 6 0 4 -8 -3 -17z m4696 -93 c-3 -5 -12 -10 -18 -10 -7 0 -6
4 3 10 19 12 23 12 15 0z m-4663 -47 c-6 -3 -9 -10 -6 -15 4 -7 2 -8 -5 -4 -9
6 -9 11 0 22 6 8 15 12 18 8 3 -4 0 -9 -7 -11z m95 2 c0 -8 -4 -12 -9 -9 -5 3
-6 10 -3 15 9 13 12 11 12 -6z m240 0 c0 -8 -4 -12 -9 -9 -5 3 -6 10 -3 15 9
13 12 11 12 -6z m240 0 c0 -8 -4 -12 -9 -9 -5 3 -6 10 -3 15 9 13 12 11 12 -6z
m193 0 c0 -2 -9 -3 -19 -2 -11 0 -18 5 -15 9 4 6 34 0 34 -7z m160 0 c0 -2 -9
-3 -19 -2 -11 0 -18 5 -15 9 4 6 34 0 34 -7z m160 0 c0 -2 -9 -3 -19 -2 -11 0
-18 5 -15 9 4 6 34 0 34 -7z m160 0 c0 -2 -9 -3 -19 -2 -11 0 -18 5 -15 9 4 6
34 0 34 -7z m64 7 c3 -5 -1 -9 -9 -9 -8 0 -12 4 -9 9 3 4 7 8 9 8 2 0 6 -4 9
-8z m2278 -42 c7 0 7 5 -1 13 -8 10 -7 14 4 14 8 0 12 -4 9 -9 -3 -4 -1 -8 4
-8 5 0 9 -7 9 -15 0 -18 0 -18 -30 -4 -14 6 -30 23 -36 38 l-11 26 21 -27 c11
-16 25 -28 31 -28z m212 25 c9 -14 13 -25 8 -25 -5 0 -14 11 -20 25 -6 14 -10
25 -8 25 2 0 11 -11 20 -25z m211 6 c-2 -11 3 -22 11 -25 8 -3 14 -1 14 5 0 6
5 7 11 3 8 -5 6 -10 -5 -16 -11 -6 -22 -6 -32 2 -7 7 -14 8 -14 3 0 -5 -7 -10
-15 -10 -8 0 -12 5 -8 10 3 5 -3 6 -14 3 -12 -4 -25 -1 -31 7 -9 10 -8 14 3
14 8 0 12 -4 9 -9 -3 -4 0 -8 5 -8 6 0 11 4 11 8 0 5 7 9 15 9 8 0 11 -5 8
-10 -3 -5 0 -8 8 -5 8 3 15 10 15 16 2 18 4 22 8 22 3 0 3 -9 1 -19z m275 4
c0 -2 -9 -3 -19 -2 -11 0 -18 5 -15 9 4 6 34 0 34 -7z m160 0 c0 -2 -9 -3 -19
-2 -11 0 -18 5 -15 9 4 6 34 0 34 -7z m127 0 c0 -8 -4 -12 -9 -9 -5 3 -6 10
-3 15 9 13 12 11 12 -6z m43 9 c0 -8 -19 -13 -24 -6 -3 5 1 9 9 9 8 0 15 -2
15 -3z m-3455 -14 c3 -5 13 -7 23 -4 16 5 16 5 0 -6 -20 -12 -28 -13 -27 -3 0
4 -8 10 -18 14 -16 7 -16 8 -1 8 9 1 19 -3 23 -9z m-923 -9 c8 12 9 12 6 0 -6
-22 -28 -25 -27 -4 0 12 2 14 6 4 5 -11 7 -11 15 0z m45 -10 c0 -11 -7 -17
-14 -14 -9 4 -9 8 0 19 16 17 16 17 14 -5z m29 -6 c1 -8 -2 -15 -6 -15 -5 0
-8 9 -7 20 1 21 10 18 13 -5z m218 10 c3 -8 1 -15 -4 -15 -6 0 -10 7 -10 15 0
8 2 15 4 15 2 0 6 -7 10 -15z m2824 -10 c-3 -3 -9 2 -12 12 -6 14 -5 15 5 6 7
-7 10 -15 7 -18z m1196 16 c3 -5 -1 -11 -9 -14 -9 -4 -12 -1 -8 9 6 16 10 17
17 5z m-1264 -95 c0 -2 -7 -7 -16 -10 -8 -3 -12 -2 -9 4 6 10 25 14 25 6z m19
-162 c-20 -25 -47 -35 -55 -22 -4 6 -3 8 2 5 6 -3 16 -2 24 3 12 7 9 11 -10
20 -23 10 -23 10 -3 6 13 -2 26 0 29 5 3 5 10 7 15 3 6 -4 5 -11 -2 -20z m-3
-58 c2 -13 -1 -15 -11 -6 -10 8 -14 8 -17 -2 -3 -8 -7 -6 -11 6 -4 10 -3 15 3
11 6 -3 10 -1 10 5 0 18 23 6 26 -14z m-46 -30 c0 -2 -8 -10 -17 -17 -16 -13
-17 -12 -4 4 13 16 21 21 21 13z m42 -32 c-12 -31 -19 -35 -31 -20 -7 8 -10
19 -7 25 8 12 42 7 38 -5z m-13 -118 c10 -12 8 -17 -8 -25 -14 -8 -22 -8 -27
1 -4 6 -3 8 2 5 6 -3 16 -2 24 3 12 7 9 11 -10 19 -15 6 -19 10 -9 10 9 1 22
-5 28 -13z m17 -59 c1 -9 -2 -19 -7 -23 -5 -3 -5 -13 1 -24 7 -13 7 -21 0 -25
-6 -4 -8 -10 -6 -14 3 -4 -4 -7 -14 -8 -11 -1 -22 3 -26 8 -3 5 -2 9 3 8 20
-4 29 3 30 22 2 18 0 19 -15 8 -9 -8 -14 -9 -10 -5 4 5 2 16 -5 25 -10 14 -10
14 4 3 13 -10 19 -10 28 2 7 9 8 17 2 20 -5 3 -11 1 -13 -6 -3 -7 -7 -5 -11 6
-4 10 -3 15 3 11 6 -3 10 -1 10 5 0 18 23 6 26 -13z m-1905 -84 c13 -16 12
-17 -3 -4 -17 13 -22 21 -14 21 2 0 10 -8 17 -17z m-36 -83 c-3 -4 0 -11 5
-13 6 -3 5 -4 -1 -3 -7 1 -13 10 -15 19 -1 9 2 15 7 11 5 -3 7 -9 4 -14z
m1924 -28 c7 -13 6 -19 -2 -19 -7 0 -13 9 -13 19 0 10 1 18 3 18 1 0 7 -8 12
-18z m-32 -207 c0 -8 -4 -12 -9 -9 -5 3 -6 10 -3 15 9 13 12 11 12 -6z m24
-133 c-7 -2 -18 1 -23 6 -8 8 -4 9 13 5 13 -4 18 -8 10 -11z m9 -18 c0 -8 -19
-13 -24 -6 -3 5 1 9 9 9 8 0 15 -2 15 -3z m-9 -102 c-7 -2 -18 1 -23 6 -8 8
-4 9 13 5 13 -4 18 -8 10 -11z m-1886 -61 c3 -5 2 -12 -3 -15 -5 -3 -9 1 -9 9
0 17 3 19 12 6z m-15 -51 c0 -5 -7 -7 -15 -4 -8 4 -15 8 -15 10 0 2 7 4 15 4
8 0 15 -4 15 -10z m300 -58 c0 -5 -7 -9 -15 -9 -8 0 -12 4 -9 9 3 4 9 8 15 8
5 0 9 -4 9 -8z m35 -12 c-3 -4 3 -14 12 -21 15 -12 16 -12 9 6 -6 16 -5 17 5
8 9 -10 16 -10 26 -1 8 6 13 7 12 2 -4 -21 2 -28 12 -14 7 10 9 11 7 2 -2 -8
-6 -12 -9 -10 -3 2 -13 -3 -22 -11 -13 -10 -20 -11 -31 -2 -11 10 -16 8 -24
-6 -6 -10 -14 -14 -19 -10 -4 5 0 13 10 18 10 6 14 15 10 22 -11 18 -12 38 -2
31 5 -3 7 -9 4 -14z m102 13 c-4 -3 0 -15 10 -25 9 -10 13 -21 10 -25 -4 -3
-7 -1 -7 6 0 7 -5 9 -12 5 -6 -4 -8 -3 -4 4 3 6 2 13 -4 17 -10 6 -5 25 7 25
4 0 3 -3 0 -7z m163 -15 c0 -6 7 -16 16 -22 13 -10 13 -12 -5 -12 -11 0 -18 2
-16 4 2 2 0 15 -6 29 -6 16 -6 22 1 18 6 -3 10 -11 10 -17z m155 12 c3 -5 1
-10 -4 -10 -6 0 -11 5 -11 10 0 6 2 10 4 10 3 0 8 -4 11 -10z m60 -10 c-3 -4
3 -14 12 -21 15 -12 16 -12 9 6 -6 16 -5 17 5 8 9 -10 16 -10 26 -1 8 6 13 7
12 2 -4 -21 2 -28 12 -14 7 10 9 11 7 2 -2 -8 -6 -12 -9 -10 -3 2 -13 -3 -22
-11 -13 -10 -20 -11 -31 -2 -11 10 -16 8 -24 -6 -6 -10 -14 -14 -19 -10 -4 5
0 13 10 18 10 6 14 15 10 22 -11 18 -12 38 -2 31 5 -3 7 -9 4 -14z m445 12 c0
-5 -7 -9 -15 -9 -8 0 -12 4 -9 9 3 4 9 8 15 8 5 0 9 -4 9 -8z m35 -12 c-3 -4
3 -14 12 -21 15 -12 16 -12 9 6 -6 16 -5 17 5 8 9 -10 16 -10 26 -1 8 6 13 7
12 2 -4 -21 2 -28 12 -14 7 10 9 11 7 2 -2 -8 -6 -12 -9 -10 -3 2 -13 -3 -22
-11 -13 -10 -20 -11 -31 -2 -11 10 -16 8 -24 -6 -6 -10 -14 -14 -19 -10 -4 5
0 13 10 18 10 6 14 15 10 22 -11 18 -12 38 -2 31 5 -3 7 -9 4 -14z m102 13
c-4 -3 0 -15 10 -25 9 -10 13 -21 10 -25 -4 -3 -7 -1 -7 6 0 7 -5 9 -12 5 -6
-4 -8 -3 -4 4 3 6 2 13 -4 17 -10 6 -5 25 7 25 4 0 3 -3 0 -7z m163 -15 c0 -6
7 -16 16 -22 13 -10 13 -12 -5 -12 -11 0 -18 2 -16 4 2 2 0 15 -6 29 -6 16 -6
22 1 18 6 -3 10 -11 10 -17z m155 12 c3 -5 1 -10 -4 -10 -6 0 -11 5 -11 10 0
6 2 10 4 10 3 0 8 -4 11 -10z m-1041 -22 c-3 -4 2 -8 10 -8 9 0 16 5 16 12 0
6 2 9 5 6 9 -9 -6 -38 -16 -32 -6 3 -16 1 -24 -6 -11 -9 -16 -7 -25 9 -9 17
-8 20 6 14 11 -4 15 -2 11 4 -3 5 0 10 8 10 8 0 12 -4 9 -9z m371 -13 c-16
-51 -16 -50 -25 -35 -6 10 -4 20 6 31 8 8 11 19 7 24 -5 4 -3 5 4 1 7 -4 10
-13 8 -21z m589 13 c-3 -4 2 -8 10 -8 9 0 16 5 16 12 0 6 2 9 5 6 9 -9 -6 -38
-16 -32 -6 3 -16 1 -24 -6 -11 -9 -16 -7 -25 9 -9 17 -8 20 6 14 11 -4 15 -2
11 4 -3 5 0 10 8 10 8 0 12 -4 9 -9z m-1368 -30 c-10 -28 -13 -30 -16 -13 -1
6 -6 17 -10 25 -6 11 -2 15 14 15 20 0 21 -3 12 -27z m960 0 c-10 -28 -13 -30
-16 -13 -1 6 -6 17 -10 25 -6 11 -2 15 14 15 20 0 21 -3 12 -27z m-646 14 c0
-5 -10 -17 -22 -28 -13 -10 -18 -12 -11 -5 6 7 9 20 6 27 -3 8 1 14 11 14 9 0
16 -4 16 -8z m960 0 c0 -5 -10 -17 -22 -28 -13 -10 -18 -12 -11 -5 6 7 9 20 6
27 -3 8 1 14 11 14 9 0 16 -4 16 -8z"/>
<path d="M3520 3778 c0 -4 4 -8 9 -8 6 0 12 4 15 8 3 5 -1 9 -9 9 -8 0 -15 -4
-15 -9z"/>
<path d="M3520 1218 c0 -4 4 -8 9 -8 6 0 12 4 15 8 3 5 -1 9 -9 9 -8 0 -15 -4
-15 -9z"/>
<path d="M2000 180 c-9 -6 -10 -10 -3 -10 6 0 15 5 18 10 8 12 4 12 -15 0z"/>
<path d="M2480 180 c-9 -6 -10 -10 -3 -10 6 0 15 5 18 10 8 12 4 12 -15 0z"/>
<path d="M2960 180 c-9 -6 -10 -10 -3 -10 6 0 15 5 18 10 8 12 4 12 -15 0z"/>
<path d="M2355 4920 c3 -5 8 -10 11 -10 2 0 4 5 4 10 0 6 -5 10 -11 10 -5 0
-7 -4 -4 -10z"/>
<path d="M3315 4920 c3 -5 8 -10 11 -10 2 0 4 5 4 10 0 6 -5 10 -11 10 -5 0
-7 -4 -4 -10z"/>
<path d="M3410 4915 c0 -8 4 -15 10 -15 5 0 7 7 4 15 -4 8 -8 15 -10 15 -2 0
-4 -7 -4 -15z"/>
<path d="M1590 4901 c0 -5 5 -13 10 -16 6 -3 10 -2 10 4 0 5 -4 13 -10 16 -5
3 -10 2 -10 -4z"/>
<path d="M1615 4872 c-8 -23 0 -24 18 -4 14 15 15 19 2 19 -8 0 -17 -7 -20
-15z"/>
<path d="M1590 4842 c0 -6 9 -12 20 -15 11 -3 20 -3 20 -1 0 2 -9 8 -20 14
-11 6 -20 7 -20 2z"/>
<path d="M3576 4818 c3 -4 11 -5 19 -1 21 7 19 12 -4 10 -11 0 -18 -5 -15 -9z"/>
<path d="M3574 4779 c-4 -7 -3 -9 4 -5 5 3 13 0 15 -6 4 -9 6 -10 6 -1 1 17
-16 25 -25 12z"/>
<path d="M3610 4781 c0 -6 4 -13 10 -16 6 -3 7 1 4 9 -7 18 -14 21 -14 7z"/>
<path d="M3590 4715 c5 -7 6 -16 2 -21 -4 -5 -3 -5 2 -1 15 12 15 34 0 34 -9
0 -11 -4 -4 -12z"/>
<path d="M3615 4660 c-3 -5 -1 -10 4 -10 6 0 11 5 11 10 0 6 -2 10 -4 10 -3 0
-8 -4 -11 -10z"/>
<path d="M3610 4583 c0 -6 8 -17 18 -24 16 -13 16 -13 2 6 -8 11 -16 22 -17
24 -2 2 -3 0 -3 -6z"/>
<path d="M1590 4550 c0 -5 5 -10 11 -10 5 0 7 5 4 10 -3 6 -8 10 -11 10 -2 0
-4 -4 -4 -10z"/>
<path d="M1576 4518 c3 -4 11 -5 19 -1 21 7 19 12 -4 10 -11 0 -18 -5 -15 -9z"/>
<path d="M1597 4503 c-12 -11 -8 -43 6 -43 8 0 9 -3 1 -8 -13 -8 -15 -44 -2
-36 5 3 6 9 3 14 -3 5 -1 12 5 15 8 5 7 11 -1 21 -6 7 -9 21 -5 29 6 16 3 19
-7 8z"/>
<path d="M3590 4480 c14 -9 7 -14 -13 -11 -5 1 -6 -3 -2 -9 5 -8 11 -8 21 1
15 12 10 29 -9 29 -7 0 -6 -4 3 -10z"/>
<path d="M1594 4359 c-3 -6 0 -15 7 -20 9 -6 10 -9 2 -9 -6 0 -11 -9 -10 -20
1 -17 12 -19 12 -2 0 4 4 12 8 19 4 6 3 14 -3 18 -6 4 -8 11 -5 16 4 5 4 9 1
9 -3 0 -8 -5 -12 -11z"/>
<path d="M3575 4160 c3 -5 8 -10 11 -10 2 0 4 5 4 10 0 6 -5 10 -11 10 -5 0
-7 -4 -4 -10z"/>
<path d="M3610 4161 c0 -6 4 -13 10 -16 6 -3 7 1 4 9 -7 18 -14 21 -14 7z"/>
<path d="M3595 4081 c-3 -5 -2 -12 3 -15 5 -3 9 1 9 9 0 17 -3 19 -12 6z"/>
<path d="M3573 4014 c-3 -8 -1 -20 5 -26 8 -8 9 -5 5 11 -4 17 -2 20 11 15 9
-3 16 -4 16 -1 0 14 -31 15 -37 1z"/>
<path d="M3615 3940 c3 -5 8 -10 11 -10 2 0 4 5 4 10 0 6 -5 10 -11 10 -5 0
-7 -4 -4 -10z"/>
<path d="M1590 3910 c0 -5 5 -10 11 -10 5 0 7 5 4 10 -3 6 -8 10 -11 10 -2 0
-4 -4 -4 -10z"/>
<path d="M3596 3893 c-6 -14 -5 -15 5 -6 7 7 10 15 7 18 -3 3 -9 -2 -12 -12z"/>
<path d="M1576 3878 c3 -4 11 -5 19 -1 21 7 19 12 -4 10 -11 0 -18 -5 -15 -9z"/>
<path d="M3576 3858 c3 -4 11 -5 19 -1 21 7 19 12 -4 10 -11 0 -18 -5 -15 -9z"/>
<path d="M3574 3819 c-4 -7 -3 -9 4 -5 5 3 13 0 15 -6 4 -9 6 -10 6 -1 1 17
-16 25 -25 12z"/>
<path d="M3610 3821 c0 -6 4 -13 10 -16 6 -3 7 1 4 9 -7 18 -14 21 -14 7z"/>
<path d="M3590 3755 c5 -7 6 -16 2 -21 -4 -5 -3 -5 2 -1 15 12 15 34 0 34 -9
0 -11 -4 -4 -12z"/>
<path d="M3615 3700 c-3 -5 -1 -10 4 -10 6 0 11 5 11 10 0 6 -2 10 -4 10 -3 0
-8 -4 -11 -10z"/>
<path d="M1590 3673 c0 -5 6 -15 13 -22 10 -11 8 -12 -10 -6 -15 4 -23 2 -23
-6 0 -7 3 -9 6 -6 4 3 14 2 24 -3 14 -7 17 -5 15 17 -1 24 -25 48 -25 26z"/>
<path d="M3610 3621 c0 -6 4 -13 10 -16 6 -3 7 1 4 9 -7 18 -14 21 -14 7z"/>
<path d="M3596 3558 c3 -5 10 -6 15 -3 13 9 11 12 -6 12 -8 0 -12 -4 -9 -9z"/>
<path d="M1578 3538 c5 -20 15 -17 18 6 1 7 -4 13 -11 13 -7 0 -10 -8 -7 -19z"/>
<path d="M3901 3527 c-13 -20 -13 -21 2 -8 14 11 17 11 17 1 0 -8 3 -11 6 -7
3 3 2 12 -3 21 -7 13 -11 12 -22 -7z"/>
<path d="M4387 3536 c-3 -8 -2 -18 3 -21 13 -8 20 9 11 24 -6 10 -10 9 -14 -3z"/>
<path d="M4800 3536 c14 -17 13 -18 -7 -12 -12 4 -24 3 -26 -1 -3 -5 17 -8 44
-8 27 0 49 4 49 8 0 5 -6 7 -14 4 -7 -3 -24 2 -37 11 -23 15 -23 15 -9 -2z"/>
<path d="M3750 3529 c0 -5 5 -7 10 -4 6 3 10 8 10 11 0 2 -4 4 -10 4 -5 0 -10
-5 -10 -11z"/>
<path d="M1010 3522 c0 -5 7 -9 15 -9 8 0 12 4 9 9 -3 4 -9 8 -15 8 -5 0 -9
-4 -9 -8z"/>
<path d="M1170 3522 c0 -5 7 -9 15 -9 8 0 12 4 9 9 -3 4 -9 8 -15 8 -5 0 -9
-4 -9 -8z"/>
<path d="M1330 3522 c0 -5 7 -9 15 -9 8 0 12 4 9 9 -3 4 -9 8 -15 8 -5 0 -9
-4 -9 -8z"/>
<path d="M1406 3522 c-2 -4 4 -8 14 -8 10 0 16 4 14 8 -3 4 -9 8 -14 8 -5 0
-11 -4 -14 -8z"/>
<path d="M3705 3520 c3 -5 8 -10 11 -10 2 0 4 5 4 10 0 6 -5 10 -11 10 -5 0
-7 -4 -4 -10z"/>
<path d="M4065 3520 c3 -5 8 -10 11 -10 2 0 4 5 4 10 0 6 -5 10 -11 10 -5 0
-7 -4 -4 -10z"/>
<path d="M4210 3519 c0 -5 5 -7 10 -4 6 3 10 8 10 11 0 2 -4 4 -10 4 -5 0 -10
-5 -10 -11z"/>
<path d="M4326 3514 c-5 -14 -4 -15 9 -4 17 14 19 20 6 20 -5 0 -12 -7 -15
-16z"/>
<path d="M4530 3522 c0 -5 7 -9 15 -9 8 0 12 4 9 9 -3 4 -9 8 -15 8 -5 0 -9
-4 -9 -8z"/>
<path d="M4690 3522 c0 -5 7 -9 15 -9 8 0 12 4 9 9 -3 4 -9 8 -15 8 -5 0 -9
-4 -9 -8z"/>
<path d="M4995 3450 c-4 -6 -11 -8 -16 -5 -5 4 -9 1 -9 -4 0 -16 16 -13 30 4
7 8 10 15 7 15 -3 0 -9 -5 -12 -10z"/>
<path d="M190 2521 c0 -6 6 -11 13 -11 8 0 7 -4 -3 -10 -9 -6 -10 -10 -3 -10
19 0 24 17 8 30 -10 9 -15 9 -15 1z"/>
<path d="M190 1625 c-11 -13 -10 -14 4 -9 9 3 16 10 16 15 0 13 -6 11 -20 -6z"/>
<path d="M4902 1609 c-7 -10 -15 -18 -20 -16 -4 1 -8 -2 -10 -8 -2 -5 1 -11 7
-13 6 -2 11 1 11 8 0 6 5 8 10 5 6 -4 10 -3 9 2 -3 20 2 27 11 13 8 -13 10
-13 10 2 0 25 -14 29 -28 7z"/>
<path d="M1105 1590 c-8 -13 -9 -12 28 -28 16 -7 26 -8 22 -2 -3 5 -1 10 4 10
6 0 11 -4 11 -8 0 -4 10 -8 23 -9 12 0 16 1 9 4 -6 3 -10 9 -7 14 4 5 -2 6
-11 2 -12 -5 -15 -3 -9 6 6 10 3 11 -13 2 -26 -14 -33 -14 -29 0 3 16 -20 23
-28 9z"/>
<path d="M1275 1590 c-3 -5 1 -10 10 -10 9 0 13 5 10 10 -3 6 -8 10 -10 10 -2
0 -7 -4 -10 -10z"/>
<path d="M4439 1591 c11 -7 11 -9 0 -14 -10 -4 -8 -6 4 -6 10 -1 15 -5 12 -11
-3 -5 -2 -10 3 -10 20 0 21 30 2 40 -23 12 -40 13 -21 1z"/>
<path d="M4625 1590 c-8 -13 -9 -12 28 -28 16 -7 26 -8 22 -2 -3 5 -1 10 4 10
6 0 11 -4 11 -8 0 -4 10 -8 23 -9 12 0 16 1 9 4 -6 3 -10 9 -7 14 4 5 -2 6
-11 2 -12 -5 -15 -3 -9 6 6 10 3 11 -13 2 -26 -14 -33 -14 -29 0 3 16 -20 23
-28 9z"/>
<path d="M210 1580 c0 -5 5 -10 11 -10 5 0 7 5 4 10 -3 6 -8 10 -11 10 -2 0
-4 -4 -4 -10z"/>
<path d="M613 1578 c-13 -6 -23 -16 -23 -21 0 -6 3 -7 7 -4 3 4 13 1 22 -5 9
-7 13 -9 9 -4 -4 5 -3 17 3 27 5 11 8 19 7 18 -2 0 -13 -5 -25 -11z"/>
<path d="M1060 1585 c0 -3 9 -14 20 -25 11 -11 20 -16 20 -11 0 5 -7 17 -16
25 -16 16 -24 20 -24 11z"/>
<path d="M4145 1582 c-11 -8 -15 -53 -4 -47 5 4 20 55 15 55 0 0 -5 -4 -11 -8z"/>
<path d="M4580 1585 c0 -3 9 -14 20 -25 11 -11 20 -16 20 -11 0 5 -7 17 -16
25 -16 16 -24 20 -24 11z"/>
<path d="M376 1568 c5 -8 2 -9 -9 -5 -10 3 -17 2 -17 -3 0 -6 7 -10 16 -10 9
0 12 -5 8 -12 -4 -7 -3 -10 1 -5 13 12 16 47 4 47 -5 0 -7 -5 -3 -12z"/>
<path d="M817 1573 c-13 -12 -7 -22 12 -20 15 1 17 4 9 14 -12 15 -13 15 -21
6z"/>
<path d="M856 1565 c4 -8 8 -15 10 -15 2 0 4 7 4 15 0 8 -4 15 -10 15 -5 0 -7
-7 -4 -15z"/>
<path d="M887 1559 c4 -13 8 -18 11 -10 2 7 -1 18 -6 23 -8 8 -9 4 -5 -13z"/>
<path d="M1545 1570 c-3 -5 1 -13 10 -16 22 -9 29 1 11 15 -10 8 -16 9 -21 1z"/>
<path d="M4376 1565 c4 -8 8 -15 10 -15 2 0 4 7 4 15 0 8 -4 15 -10 15 -5 0
-7 -7 -4 -15z"/>
<path d="M4407 1559 c4 -13 8 -18 11 -10 2 7 -1 18 -6 23 -8 8 -9 4 -5 -13z"/>
<path d="M4910 1570 c-9 -6 -10 -10 -3 -10 6 0 15 5 18 10 8 12 4 12 -15 0z"/>
<path d="M4110 1560 c0 -5 5 -10 11 -10 5 0 7 5 4 10 -3 6 -8 10 -11 10 -2 0
-4 -4 -4 -10z"/>
<path d="M510 1550 c0 -5 5 -10 11 -10 5 0 7 5 4 10 -3 6 -8 10 -11 10 -2 0
-4 -4 -4 -10z"/>
<path d="M1355 1549 c-4 -6 -4 -13 -1 -16 3 -4 6 -1 6 6 0 8 6 11 16 7 8 -3
12 -2 9 4 -8 13 -22 13 -30 -1z"/>
<path d="M1266 1538 c3 -4 9 -8 15 -8 5 0 9 4 9 8 0 5 -7 9 -15 9 -8 0 -12 -4
-9 -9z"/>
<path d="M4790 1536 c7 -7 13 -7 20 0 6 6 3 10 -10 10 -13 0 -16 -4 -10 -10z"/>
<path d="M453 1525 c0 -8 4 -12 9 -9 5 3 6 10 3 15 -9 13 -12 11 -12 -6z"/>
<path d="M935 1531 c-3 -5 -2 -12 3 -15 5 -3 9 1 9 9 0 17 -3 19 -12 6z"/>
<path d="M3626 1523 c-6 -14 -5 -15 5 -6 7 7 10 15 7 18 -3 3 -9 -2 -12 -12z"/>
<path d="M3855 1531 c-3 -5 -2 -12 3 -15 5 -3 9 1 9 9 0 17 -3 19 -12 6z"/>
<path d="M4455 1531 c-3 -5 -2 -12 3 -15 5 -3 9 1 9 9 0 17 -3 19 -12 6z"/>
<path d="M4866 1518 c3 -5 10 -6 15 -3 13 9 11 12 -6 12 -8 0 -12 -4 -9 -9z"/>
<path d="M3562 1515 c4 -4 3 -14 -4 -22 -8 -11 -7 -17 8 -27 10 -8 21 -12 24
-10 2 3 -2 9 -9 14 -8 4 -11 15 -8 24 3 8 1 18 -6 22 -7 4 -9 4 -5 -1z"/>
<path d="M3594 1498 c1 -28 22 -29 56 -5 13 9 20 17 14 17 -5 0 -15 -5 -22
-12 -20 -20 -44 -19 -37 3 4 10 2 19 -3 19 -5 0 -9 -10 -8 -22z"/>
<path d="M3615 1420 c3 -5 8 -10 11 -10 2 0 4 5 4 10 0 6 -5 10 -11 10 -5 0
-7 -4 -4 -10z"/>
<path d="M3590 1380 c0 -5 5 -10 11 -10 5 0 7 5 4 10 -3 6 -8 10 -11 10 -2 0
-4 -4 -4 -10z"/>
<path d="M3610 1320 c0 -5 5 -10 11 -10 5 0 7 5 4 10 -3 6 -8 10 -11 10 -2 0
-4 -4 -4 -10z"/>
<path d="M1575 1300 c3 -5 8 -10 11 -10 2 0 4 5 4 10 0 6 -5 10 -11 10 -5 0
-7 -4 -4 -10z"/>
<path d="M1594 1279 c-3 -6 0 -15 7 -20 9 -6 10 -9 2 -9 -6 0 -11 -9 -10 -20
1 -17 12 -19 12 -2 0 4 4 12 8 19 4 6 3 14 -3 18 -6 4 -8 11 -5 16 4 5 4 9 1
9 -3 0 -8 -5 -12 -11z"/>
<path d="M3574 1259 c-4 -7 -3 -9 4 -5 5 3 13 0 15 -6 4 -9 6 -10 6 -1 1 17
-16 25 -25 12z"/>
<path d="M3610 1261 c0 -6 4 -13 10 -16 6 -3 7 1 4 9 -7 18 -14 21 -14 7z"/>
<path d="M3590 1195 c5 -7 6 -16 2 -21 -4 -5 -3 -5 2 -1 15 12 15 34 0 34 -9
0 -11 -4 -4 -12z"/>
<path d="M1594 1159 c-3 -6 0 -15 7 -20 9 -6 10 -9 2 -9 -6 0 -11 -9 -10 -20
1 -17 12 -19 12 -2 0 4 4 12 8 19 4 6 3 14 -3 18 -6 4 -8 11 -5 16 4 5 4 9 1
9 -3 0 -8 -5 -12 -11z"/>
<path d="M3615 1140 c-3 -5 -1 -10 4 -10 6 0 11 5 11 10 0 6 -2 10 -4 10 -3 0
-8 -4 -11 -10z"/>
<path d="M3610 1063 c0 -6 8 -17 18 -24 16 -13 16 -13 2 6 -8 11 -16 22 -17
24 -2 2 -3 0 -3 -6z"/>
<path d="M3590 960 c14 -9 7 -14 -13 -11 -5 1 -6 -3 -2 -9 5 -8 11 -8 21 1 15
12 10 29 -9 29 -7 0 -6 -4 3 -10z"/>
<path d="M1590 710 c0 -5 5 -10 11 -10 5 0 7 5 4 10 -3 6 -8 10 -11 10 -2 0
-4 -4 -4 -10z"/>
<path d="M1576 678 c3 -4 11 -5 19 -1 21 7 19 12 -4 10 -11 0 -18 -5 -15 -9z"/>
<path d="M1597 663 c-12 -11 -8 -43 6 -43 8 0 9 -3 1 -8 -13 -8 -15 -44 -2
-36 5 3 6 9 3 14 -3 5 -1 12 5 15 8 5 7 11 -1 21 -6 7 -9 21 -5 29 6 16 3 19
-7 8z"/>
<path d="M3543 614 c9 -11 14 -24 10 -27 -3 -4 -2 -7 4 -7 6 0 13 9 16 20 3
11 1 17 -4 14 -6 -3 -18 0 -27 7 -15 12 -15 12 1 -7z"/>
<path d="M3590 619 c0 -5 5 -7 10 -4 6 3 10 8 10 11 0 2 -4 4 -10 4 -5 0 -10
-5 -10 -11z"/>
<path d="M3543 553 c0 -9 6 -9 21 -1 30 15 30 16 3 14 -13 0 -24 -6 -24 -13z"/>
<path d="M3589 537 c6 -8 9 -16 6 -19 -3 -2 2 -5 10 -5 13 0 13 3 -2 19 -19
21 -31 25 -14 5z"/>
<path d="M1594 519 c-3 -6 0 -15 7 -20 9 -6 10 -9 2 -9 -6 0 -11 -9 -10 -20 1
-17 12 -19 12 -2 0 4 4 12 8 19 4 6 3 14 -3 18 -6 4 -8 11 -5 16 4 5 4 9 1 9
-3 0 -8 -5 -12 -11z"/>
<path d="M3525 440 c-3 -5 -1 -10 4 -10 6 0 11 5 11 10 0 6 -2 10 -4 10 -3 0
-8 -4 -11 -10z"/>
<path d="M3590 319 c0 -5 5 -7 10 -4 6 3 10 8 10 11 0 2 -4 4 -10 4 -5 0 -10
-5 -10 -11z"/>
<path d="M3610 301 c0 -6 4 -13 10 -16 6 -3 7 1 4 9 -7 18 -14 21 -14 7z"/>
<path d="M1590 251 c0 -10 30 -24 37 -17 3 2 -5 9 -16 16 -12 6 -21 7 -21 1z"/>
<path d="M3530 200 c0 -5 5 -10 10 -10 6 0 10 5 10 10 0 6 -4 10 -10 10 -5 0
-10 -4 -10 -10z"/>
<path d="M2729 198 c-7 -23 -5 -40 7 -55 12 -16 13 -15 10 15 -3 26 -1 30 10
21 8 -6 12 -15 9 -19 -3 -5 0 -12 6 -16 7 -4 9 -3 5 4 -3 6 -2 13 4 17 5 3 10
0 10 -8 0 -8 8 -18 18 -22 13 -5 14 -3 5 6 -6 6 -9 17 -7 24 7 16 -12 29 -21
15 -4 -6 -12 -5 -21 5 -13 13 -32 20 -35 13z"/>
<path d="M1797 178 c4 -7 8 -16 8 -20 0 -3 4 -10 9 -15 5 -4 6 -3 2 4 -3 6 -2
14 4 18 5 3 10 0 10 -8 0 -8 7 -18 16 -21 13 -5 14 -4 6 7 -7 8 -9 17 -6 20 3
3 3 11 -1 17 -5 8 -11 8 -21 -1 -10 -8 -14 -8 -14 0 0 6 -5 11 -11 11 -6 0 -7
-5 -2 -12z"/>
<path d="M1614 166 c1 -8 5 -18 8 -22 4 -3 5 1 4 10 -1 8 -5 18 -8 22 -4 3 -5
-1 -4 -10z"/>
<path d="M1753 132 c0 -12 5 -22 9 -22 11 0 10 12 -2 30 -7 12 -9 10 -7 -8z"/>
<path d="M2035 130 c3 -5 8 -10 11 -10 2 0 4 5 4 10 0 6 -5 10 -11 10 -5 0 -7
-4 -4 -10z"/>
<path d="M2515 130 c3 -5 8 -10 11 -10 2 0 4 5 4 10 0 6 -5 10 -11 10 -5 0 -7
-4 -4 -10z"/>
<path d="M2995 130 c3 -5 8 -10 11 -10 2 0 4 5 4 10 0 6 -5 10 -11 10 -5 0 -7
-4 -4 -10z"/>
<path d="M2100 126 c0 -2 8 -10 18 -17 15 -13 16 -12 3 4 -13 16 -21 21 -21
13z"/>
<path d="M2140 126 c0 -2 7 -7 16 -10 8 -3 12 -2 9 4 -6 10 -25 14 -25 6z"/>
<path d="M2215 121 c-3 -5 -2 -12 3 -15 5 -3 9 1 9 9 0 17 -3 19 -12 6z"/>
<path d="M2695 121 c-3 -5 -2 -12 3 -15 5 -3 9 1 9 9 0 17 -3 19 -12 6z"/>
<path d="M3060 126 c0 -2 8 -10 18 -17 15 -13 16 -12 3 4 -13 16 -21 21 -21
13z"/>
<path d="M3100 126 c0 -2 7 -7 16 -10 8 -3 12 -2 9 4 -6 10 -25 14 -25 6z"/>
<path d="M3175 121 c-3 -5 -2 -12 3 -15 5 -3 9 1 9 9 0 17 -3 19 -12 6z"/>
<path d="M3450 121 c0 -6 4 -13 10 -16 6 -3 7 1 4 9 -7 18 -14 21 -14 7z"/>
<path d="M2005 100 c-3 -6 1 -7 9 -4 18 7 21 14 7 14 -6 0 -13 -4 -16 -10z"/>
<path d="M2485 100 c-3 -6 1 -7 9 -4 18 7 21 14 7 14 -6 0 -13 -4 -16 -10z"/>
<path d="M2965 100 c-3 -6 1 -7 9 -4 18 7 21 14 7 14 -6 0 -13 -4 -16 -10z"/>
</g>
</svg>
